<?xml version="1.0" encoding="utf-8"?>
<!-- Generator: Adobe Illustrator 16.0.0, SVG Export Plug-In . SVG Version: 6.00 Build 0)  -->
<!DOCTYPE svg PUBLIC "-//W3C//DTD SVG 1.1//EN" "http://www.w3.org/Graphics/SVG/1.1/DTD/svg11.dtd">
<svg version="1.1" id="Layer_1" xmlns="http://www.w3.org/2000/svg" xmlns:xlink="http://www.w3.org/1999/xlink" x="0px" y="0px"
	 width="32px" height="32px" viewBox="0 0 32 32" enable-background="new 0 0 32 32" xml:space="preserve">
<path d="M22,24H10c-0.312,0-0.562-0.062-0.75-0.188C9,23.75,8.812,23.562,8.625,23.375S8.25,23,8.188,22.75
	C8.062,22.562,8,22.312,8,22s0.062-0.562,0.188-0.812C8.25,21,8.438,20.75,8.625,20.562S9,20.25,9.25,20.125
	C9.438,20.062,9.688,20,10,20h12c0.312,0,0.562,0.062,0.812,0.125c0.188,0.125,0.438,0.25,0.625,0.438S23.75,21,23.875,21.188
	C23.938,21.438,24,21.688,24,22s-0.062,0.562-0.125,0.75c-0.125,0.25-0.25,0.438-0.438,0.625S23,23.75,22.812,23.812
	C22.562,23.938,22.312,24,22,24z M10,8h6c0.312,0,0.562,0.062,0.812,0.125C17,8.25,17.25,8.375,17.438,8.562S17.75,9,17.875,9.188
	C17.938,9.438,18,9.688,18,10s-0.062,0.562-0.125,0.75c-0.125,0.25-0.25,0.438-0.438,0.625S17,11.75,16.812,11.812
	C16.562,11.938,16.312,12,16,12h-6c-0.312,0-0.562-0.062-0.75-0.188C9,11.75,8.812,11.562,8.625,11.375S8.25,11,8.188,10.75
	C8.062,10.562,8,10.312,8,10s0.062-0.562,0.188-0.812C8.25,9,8.438,8.75,8.625,8.562S9,8.25,9.25,8.125C9.438,8.062,9.688,8,10,8z
	 M29.938,12h-1.812c-0.25,0-0.5-0.062-0.75-0.188c-0.25-0.062-0.5-0.25-0.688-0.438s-0.375-0.375-0.5-0.625S26,10.25,26,10
	c0-1.438-0.25-2.75-0.812-4C24.625,4.812,23.938,3.75,23,2.812c-0.938-0.875-2.062-1.562-3.312-2.062S17.062,0,15.625,0h-5.25
	c-1.438,0-2.75,0.25-4,0.812C5.062,1.375,4,2.062,3.062,3s-1.688,2.062-2.25,3.312S0,8.875,0,10.312v11.375
	c0,1.438,0.25,2.75,0.812,4s1.312,2.312,2.25,3.25s2,1.688,3.312,2.25c1.25,0.562,2.562,0.812,4,0.812h11.25
	c1.438,0,2.75-0.25,4.062-0.812c1.25-0.562,2.375-1.312,3.312-2.25s1.625-2,2.188-3.25s0.812-2.562,0.812-4v-7.312
	c0-0.312-0.062-0.562-0.125-0.875c-0.125-0.312-0.25-0.562-0.438-0.75S31,12.375,30.75,12.188C30.5,12.062,30.25,12,29.938,12z"/>
</svg>
