<?xml version="1.0" encoding="utf-8"?>
<!-- Generator: Adobe Illustrator 16.0.0, SVG Export Plug-In . SVG Version: 6.00 Build 0)  -->
<!DOCTYPE svg PUBLIC "-//W3C//DTD SVG 1.1//EN" "http://www.w3.org/Graphics/SVG/1.1/DTD/svg11.dtd">
<svg version="1.1" id="Layer_1" xmlns="http://www.w3.org/2000/svg" xmlns:xlink="http://www.w3.org/1999/xlink" x="0px" y="0px"
	 width="32px" height="32px" viewBox="0 0 32 32" enable-background="new 0 0 32 32" xml:space="preserve">
<path d="M28,10h-6V4h6V10z M28,28H4V14h4.312c-0.062,0.188-0.062,0.312-0.125,0.5S8.125,14.812,8.125,15
	c-0.062,0.188-0.062,0.312-0.062,0.5C8,15.688,8,15.812,8,16c0,1.125,0.188,2.188,0.625,3.125s1,1.812,1.75,2.5
	c0.688,0.75,1.562,1.312,2.5,1.75S14.875,24,16,24s2.188-0.188,3.125-0.625s1.812-1,2.562-1.75c0.688-0.688,1.25-1.562,1.688-2.5
	S24,17.125,24,16c0-0.188,0-0.312,0-0.5c-0.062-0.188-0.062-0.312-0.062-0.5c-0.062-0.188-0.062-0.312-0.125-0.5
	s-0.062-0.312-0.125-0.5H28V28z M12,16c0,0,0.062-0.188,0.125-0.625s0.188-0.875,0.5-1.375c0.25-0.5,0.625-0.938,1.188-1.375
	S15.062,12,16,12s1.625,0.188,2.188,0.625S19.125,13.5,19.438,14c0.25,0.5,0.438,0.938,0.5,1.375S20,16,20,16s0,0.188,0,0.625
	C19.938,17.062,19.812,17.5,19.562,18s-0.625,0.938-1.188,1.375S17.062,20,16,20s-1.812-0.188-2.375-0.625S12.688,18.5,12.438,18
	s-0.375-0.938-0.375-1.375C12,16.188,12,16,12,16z M30,0H2C1.688,0,1.438,0.062,1.25,0.125C1,0.25,0.812,0.375,0.625,0.562
	S0.25,1,0.188,1.188C0.062,1.438,0,1.688,0,2v28c0,0.312,0.062,0.562,0.188,0.75c0.062,0.25,0.25,0.438,0.438,0.625
	S1,31.75,1.25,31.812C1.438,31.938,1.688,32,2,32h28c0.312,0,0.562-0.062,0.812-0.188c0.188-0.062,0.438-0.25,0.625-0.438
	S31.75,31,31.875,30.75C31.938,30.562,32,30.312,32,30V2c0-0.312-0.062-0.562-0.125-0.812C31.75,1,31.625,0.75,31.438,0.562
	S31,0.25,30.812,0.125C30.562,0.062,30.312,0,30,0z"/>
</svg>
