<?xml version="1.0" encoding="utf-8"?>
<!-- Generator: Adobe Illustrator 16.0.0, SVG Export Plug-In . SVG Version: 6.00 Build 0)  -->
<!DOCTYPE svg PUBLIC "-//W3C//DTD SVG 1.1//EN" "http://www.w3.org/Graphics/SVG/1.1/DTD/svg11.dtd">
<svg version="1.1" id="Layer_1" xmlns="http://www.w3.org/2000/svg" xmlns:xlink="http://www.w3.org/1999/xlink" x="0px" y="0px"
	 width="32px" height="32px" viewBox="0 0 32 32" enable-background="new 0 0 32 32" xml:space="preserve">
<path d="M31.997,16.034c0,2.916-0.729,5.612-2.186,8.017c-1.385,2.479-3.353,4.446-5.758,5.831c-2.479,1.457-5.175,2.186-8.09,2.113
	c-2.843,0.072-5.539-0.656-8.017-2.113c-2.405-1.385-4.373-3.353-5.831-5.831c-1.385-2.405-2.113-5.102-2.113-8.017
	c0-2.842,0.729-5.539,2.113-8.09c1.458-2.405,3.426-4.3,5.831-5.757C10.425,0.802,13.121,0.073,15.964,0
	c2.915,0.073,5.611,0.802,8.09,2.187c2.405,1.458,4.373,3.353,5.758,5.757C31.269,10.495,31.997,13.191,31.997,16.034z
	 M27.333,16.107c0-2.114-0.51-4.009-1.53-5.685c-1.021-1.822-2.405-3.207-4.154-4.154c-1.677-1.093-3.571-1.603-5.685-1.53
	c-2.041-0.073-3.936,0.437-5.685,1.53C8.603,7.215,7.218,8.6,6.197,10.422c-1.02,1.676-1.53,3.571-1.53,5.685
	c0,1.967,0.511,3.863,1.53,5.685c1.021,1.676,2.405,2.987,4.082,4.081c1.749,0.947,3.644,1.457,5.685,1.53
	c2.113-0.073,4.008-0.583,5.685-1.53c1.749-1.094,3.134-2.405,4.154-4.081C26.823,19.97,27.333,18.074,27.333,16.107z
	 M24.418,14.285L15.6,23.104c-0.219,0.219-0.583,0.364-0.947,0.438c-0.365-0.073-0.656-0.219-0.948-0.438l-6.122-6.195
	c-0.218-0.219-0.364-0.51-0.364-0.875c0-0.364,0.146-0.656,0.364-0.947l2.114-2.041c0.291-0.365,0.583-0.51,0.947-0.438
	c0.364-0.073,0.729,0.073,0.947,0.438l3.062,2.988l5.757-5.685c0.219-0.292,0.583-0.438,0.947-0.364
	c0.365-0.073,0.656,0.073,0.875,0.364l2.187,2.041c0.219,0.365,0.364,0.656,0.364,0.948C24.782,13.702,24.637,14.066,24.418,14.285z
	"/>
</svg>
