<?xml version="1.0" encoding="utf-8"?>
<!-- Generator: Adobe Illustrator 16.0.0, SVG Export Plug-In . SVG Version: 6.00 Build 0)  -->
<!DOCTYPE svg PUBLIC "-//W3C//DTD SVG 1.1//EN" "http://www.w3.org/Graphics/SVG/1.1/DTD/svg11.dtd">
<svg version="1.1" id="Layer_1" xmlns="http://www.w3.org/2000/svg" xmlns:xlink="http://www.w3.org/1999/xlink" x="0px" y="0px"
	 width="32px" height="32px" viewBox="0 0 32 32" enable-background="new 0 0 32 32" xml:space="preserve">
<path d="M31.528,8.522L15.899,24.151c-0.337,0.337-0.674,0.472-1.145,0.472c-0.404,0-0.741-0.135-1.078-0.472L5.39,15.865
	c-0.337-0.337-0.472-0.674-0.472-1.078c0-0.404,0.135-0.741,0.472-1.078l2.156-2.156c0.337-0.337,0.673-0.472,1.078-0.472
	s0.741,0.135,1.078,0.472l5.053,5.053L27.217,4.21c0.337-0.337,0.674-0.472,1.146-0.472c0.404,0,0.741,0.135,1.078,0.472
	l2.088,2.088C31.865,6.636,32,6.973,32,7.377C32,7.849,31.865,8.185,31.528,8.522z M27.082,17.887v6.13
	c0,1.55-0.539,2.83-1.617,3.907c-1.077,1.078-2.357,1.617-3.907,1.617H5.524c-1.55,0-2.83-0.539-3.908-1.617
	C0.539,26.847,0,25.566,0,24.017V7.983c0-1.55,0.539-2.83,1.617-3.908c1.078-1.078,2.358-1.617,3.908-1.617h16.033
	c0.809,0,1.55,0.135,2.224,0.472c0.202,0.067,0.337,0.27,0.404,0.472c0,0.202-0.067,0.404-0.202,0.539L23.04,4.884
	c-0.135,0.135-0.27,0.202-0.472,0.202c0,0-0.067,0-0.135-0.067c-0.337-0.067-0.606-0.067-0.876-0.067H5.524
	c-0.876,0-1.55,0.27-2.156,0.875C2.762,6.434,2.493,7.175,2.493,7.983v16.033c0,0.876,0.27,1.55,0.876,2.156
	c0.606,0.606,1.28,0.943,2.156,0.943h16.033c0.876,0,1.55-0.337,2.156-0.943s0.943-1.28,0.943-2.156v-4.851
	c0-0.202,0.067-0.337,0.135-0.472l1.279-1.212c0.067-0.135,0.202-0.202,0.404-0.202c0.067,0,0.202,0,0.27,0.067
	C26.947,17.415,27.082,17.617,27.082,17.887z"/>
</svg>
