<?xml version="1.0" encoding="utf-8"?>
<!-- Generator: Adobe Illustrator 16.0.0, SVG Export Plug-In . SVG Version: 6.00 Build 0)  -->
<!DOCTYPE svg PUBLIC "-//W3C//DTD SVG 1.1//EN" "http://www.w3.org/Graphics/SVG/1.1/DTD/svg11.dtd">
<svg version="1.1" id="Layer_1" xmlns="http://www.w3.org/2000/svg" xmlns:xlink="http://www.w3.org/1999/xlink" x="0px" y="0px"
	 width="32px" height="32px" viewBox="0 0 32 32" enable-background="new 0 0 32 32" xml:space="preserve">
<path d="M7.75,29.868l0.073-0.073c-0.145,0.146-0.218,0.29-0.29,0.436c-0.073,0.145-0.073,0.29-0.073,0.435
	c-0.072,0.218,0,0.362,0.073,0.508c0.072,0.145,0.145,0.29,0.217,0.507c0.218,0.073,0.363,0.146,0.507,0.218
	c0.073,0.072,0.218,0.146,0.435,0.072c0.218,0,0.363,0,0.508-0.072s0.29-0.145,0.435-0.29l14.5-14.644
	c0.145-0.146,0.217-0.29,0.289-0.436c0.073-0.145,0.073-0.29,0.146-0.507c0-0.218-0.072-0.363-0.146-0.508
	c-0.072-0.072-0.145-0.217-0.217-0.435L9.563,0.507C9.49,0.29,9.418,0.218,9.201,0.145C8.983,0.073,8.838,0.073,8.693,0
	c-0.145,0-0.29,0.073-0.435,0.145c-0.217,0.073-0.362,0.217-0.435,0.29C7.678,0.58,7.605,0.725,7.533,0.87
	C7.46,1.015,7.46,1.16,7.46,1.377c-0.072,0.217,0,0.362,0.073,0.435C7.605,1.958,7.678,2.103,7.75,2.32L21.09,16.021L7.75,29.868z"
	/>
</svg>
