<?xml version="1.0" encoding="utf-8"?>
<!-- Generator: Adobe Illustrator 16.0.0, SVG Export Plug-In . SVG Version: 6.00 Build 0)  -->
<!DOCTYPE svg PUBLIC "-//W3C//DTD SVG 1.1//EN" "http://www.w3.org/Graphics/SVG/1.1/DTD/svg11.dtd">
<svg version="1.1" id="Layer_1" xmlns="http://www.w3.org/2000/svg" xmlns:xlink="http://www.w3.org/1999/xlink" x="0px" y="0px"
	 width="32px" height="32px" viewBox="0 0 32 32" enable-background="new 0 0 32 32" xml:space="preserve">
<path d="M2.182,7.818C2.036,7.673,1.891,7.6,1.746,7.527C1.6,7.454,1.455,7.454,1.309,7.454c-0.218,0-0.364,0-0.509,0.073
	C0.655,7.6,0.509,7.673,0.364,7.818s-0.218,0.29-0.291,0.436S0,8.545,0,8.69C0,8.909,0,9.055,0.073,9.2
	c0.073,0.145,0.146,0.29,0.291,0.436l14.691,14.546c0.146,0.146,0.291,0.219,0.509,0.291c0.146,0.073,0.291,0.073,0.437,0.073
	s0.291,0,0.509-0.073c0.146-0.072,0.291-0.146,0.437-0.291L31.637,9.636c0.146-0.146,0.218-0.291,0.291-0.436
	C32,9.055,32,8.909,32,8.69c0-0.146,0-0.291-0.072-0.437c-0.073-0.146-0.146-0.29-0.291-0.436S31.346,7.6,31.2,7.527
	c-0.146-0.073-0.291-0.073-0.437-0.073c-0.218,0-0.363,0-0.509,0.073c-0.146,0.072-0.291,0.146-0.437,0.291L16,21.127L2.182,7.818z"
	/>
</svg>
