<?xml version="1.0" encoding="utf-8"?>
<!-- Generator: Adobe Illustrator 16.0.0, SVG Export Plug-In . SVG Version: 6.00 Build 0)  -->
<!DOCTYPE svg PUBLIC "-//W3C//DTD SVG 1.1//EN" "http://www.w3.org/Graphics/SVG/1.1/DTD/svg11.dtd">
<svg version="1.1" id="Layer_1" xmlns="http://www.w3.org/2000/svg" xmlns:xlink="http://www.w3.org/1999/xlink" x="0px" y="0px"
	 width="32px" height="32px" viewBox="0 0 32 32" enable-background="new 0 0 32 32" xml:space="preserve">
<path d="M24.207,29.868l-0.072-0.073c0.145,0.146,0.217,0.29,0.289,0.436c0.073,0.145,0.073,0.29,0.146,0.435
	c0,0.218-0.072,0.362-0.146,0.508c-0.072,0.145-0.145,0.29-0.217,0.507c-0.218,0.073-0.362,0.146-0.436,0.218
	c-0.145,0.072-0.29,0.146-0.507,0.072c-0.218,0-0.362,0-0.508-0.072c-0.145-0.072-0.29-0.145-0.435-0.29L7.823,16.964
	c-0.145-0.146-0.218-0.29-0.29-0.436c-0.073-0.145-0.073-0.29-0.073-0.507c-0.072-0.218,0-0.363,0.073-0.508
	c0.072-0.072,0.145-0.217,0.217-0.435L22.395,0.507c0.072-0.217,0.145-0.29,0.362-0.362C22.975,0.073,23.119,0.073,23.265,0
	c0.145,0,0.29,0.073,0.507,0.145c0.146,0.073,0.29,0.217,0.363,0.29c0.145,0.145,0.217,0.29,0.289,0.435
	c0.073,0.145,0.073,0.29,0.146,0.507c0,0.217-0.072,0.362-0.146,0.435c-0.072,0.145-0.145,0.29-0.217,0.507L10.868,16.021
	L24.207,29.868z"/>
</svg>
