<?xml version="1.0" encoding="utf-8"?>
<!-- Generator: Adobe Illustrator 16.0.0, SVG Export Plug-In . SVG Version: 6.00 Build 0)  -->
<!DOCTYPE svg PUBLIC "-//W3C//DTD SVG 1.1//EN" "http://www.w3.org/Graphics/SVG/1.1/DTD/svg11.dtd">
<svg version="1.1" id="Layer_1" xmlns="http://www.w3.org/2000/svg" xmlns:xlink="http://www.w3.org/1999/xlink" x="0px" y="0px"
	 width="32px" height="32px" viewBox="0 0 32 32" enable-background="new 0 0 32 32" xml:space="preserve">
<path d="M15.498,8.879v2.886c0.062,0,0.062,0,0.125,0c0.062,0,0.062,0,0.125,0c0.062,0,0.062,0,0.125,0c0.062,0,0.062,0,0.125,0
	c1.066,0,2.134,0.063,3.2,0.188c1.066,0.126,2.07,0.313,3.012,0.564s1.882,0.565,2.761,0.879c0.815,0.376,1.631,0.753,2.321,1.192
	c0.753,0.438,1.443,0.94,2.008,1.442c0.564,0.564,1.004,1.13,1.443,1.694s0.753,1.192,0.941,1.819
	C31.875,20.173,32,20.862,32,21.553c0,0.126,0,0.251,0,0.377c0,0.125,0,0.251,0,0.376c-0.062,0.188-0.062,0.313-0.125,0.439
	c-0.063,0.125-0.063,0.251-0.063,0.376h-15.31v-8.03c0.439,0,0.815,0,1.255,0.062c0.377,0.062,0.753,0.062,1.13,0.125
	c0.313,0.063,0.689,0.063,1.004,0.126c0.313,0.062,0.564,0.188,0.878,0.251v4.329h5.333c-0.125-0.69-0.376-1.443-0.753-2.134
	c-0.376-0.689-0.94-1.317-1.693-1.882c-0.816-0.564-1.82-1.004-3.012-1.317c-1.255-0.313-2.824-0.502-4.644-0.502
	c-0.063,0-0.063,0-0.125,0c-0.063,0-0.063,0-0.125,0c-0.063,0-0.063,0-0.125,0c-0.063,0-0.063,0-0.125,0v8.972H0.188
	c0-0.125,0-0.251-0.063-0.376c-0.063-0.126-0.063-0.251-0.063-0.439C0,22.181,0,22.055,0,21.93c0-0.126,0-0.251,0-0.377
	c0-0.69,0.125-1.38,0.314-2.008c0.188-0.627,0.502-1.255,0.941-1.819c0.439-0.564,0.941-1.13,1.506-1.694
	c0.565-0.502,1.192-1.004,1.945-1.442c0.439-0.251,0.878-0.502,1.443-0.753c0.502-0.251,1.004-0.502,1.569-0.69
	c0.564-0.188,1.129-0.377,1.694-0.564c0.565-0.188,1.192-0.314,1.82-0.377V9.255c0.313-0.062,0.69-0.062,1.066-0.125
	c0.314-0.062,0.69-0.062,1.067-0.126c0.313-0.062,0.69-0.062,1.066-0.125C14.808,8.879,15.184,8.879,15.498,8.879z M11.231,19.984
	v-5.271c-0.941,0.251-1.694,0.564-2.322,0.941c-0.627,0.376-1.129,0.815-1.568,1.255c-0.439,0.438-0.753,0.94-0.941,1.442
	c-0.251,0.565-0.439,1.067-0.502,1.632H11.231z"/>
</svg>
