<?xml version="1.0" encoding="utf-8"?>
<!-- Generator: Adobe Illustrator 16.0.0, SVG Export Plug-In . SVG Version: 6.00 Build 0)  -->
<!DOCTYPE svg PUBLIC "-//W3C//DTD SVG 1.1//EN" "http://www.w3.org/Graphics/SVG/1.1/DTD/svg11.dtd">
<svg version="1.1" id="Layer_1" xmlns="http://www.w3.org/2000/svg" xmlns:xlink="http://www.w3.org/1999/xlink" x="0px" y="0px"
	 width="32px" height="32px" viewBox="0 0 32 32" enable-background="new 0 0 32 32" xml:space="preserve">
<path d="M12.023,9.143h1.378v8.955h-1.378V9.143z M30.622,9.143H32v8.83h-1.378V9.143z M12.399,16.72h3.569v1.378h-3.569V16.72z
	 M28.368,16.72H32v1.378h-3.632V16.72z M26.99,8.642H32v1.377h-5.01V8.642z M12.023,8.642h5.01v1.377h-5.01V8.642z M14.716,28.618
	h13.652v1.378H14.716V28.618z M14.654,16.72h1.315v13.276h-1.315V16.72z M27.992,16.72h1.378v13.276h-1.378V16.72z M26.677,12.65
	h-9.33V3.319h9.33V12.65z M15.969,2.004v12.023h12.023V2.004H15.969z M12.023,16.72H1.315V9.268
	c0.376-0.313,0.814-0.689,1.252-1.064c0.438-0.313,0.939-0.626,1.44-0.939c0.438-0.313,0.939-0.563,1.378-0.751
	C5.824,6.325,6.262,6.2,6.638,6.2c0.438,0,0.876,0.125,1.315,0.313s0.939,0.438,1.44,0.751c0.438,0.313,0.939,0.626,1.377,0.939
	c0.438,0.375,0.877,0.751,1.252,1.064V16.72z M6.638,4.885c-0.689,0-1.44,0.188-2.192,0.563C3.632,5.887,2.943,6.325,2.254,6.763
	c-0.689,0.501-1.19,0.939-1.628,1.315C0.188,8.517,0,8.705,0,8.705v9.331h13.338V8.705c0,0-0.188-0.188-0.626-0.626
	c-0.438-0.375-1.002-0.814-1.628-1.315c-0.688-0.438-1.377-0.876-2.129-1.315C8.141,5.072,7.39,4.885,6.638,4.885z M10.646,28.681
	H2.693v-2.692c0-0.376,0.062-0.752,0.25-1.064c0.125-0.313,0.313-0.563,0.626-0.814c0.25-0.25,0.564-0.438,0.939-0.563
	c0.313-0.125,0.689-0.188,1.064-0.188h2.129c0.438,0,0.814,0.062,1.19,0.188c0.313,0.125,0.626,0.313,0.939,0.563
	c0.25,0.251,0.438,0.501,0.626,0.814c0.125,0.312,0.188,0.688,0.188,1.064V28.681z M7.703,21.98H5.573
	c-0.563,0-1.127,0.125-1.628,0.313c-0.501,0.188-0.939,0.501-1.315,0.876c-0.438,0.376-0.751,0.814-0.939,1.253
	c-0.25,0.501-0.376,1.002-0.376,1.565v3.006c0,0.125,0.063,0.25,0.125,0.376c0.062,0.125,0.125,0.25,0.25,0.312
	c0.062,0.062,0.188,0.126,0.313,0.188c0.125,0.062,0.25,0.125,0.376,0.125h8.579c0.125,0,0.25-0.062,0.375-0.125
	c0.125-0.062,0.25-0.126,0.376-0.188c0.062-0.062,0.188-0.188,0.25-0.312c0.062-0.126,0.062-0.251,0.062-0.376v-3.006
	c0-0.563-0.125-1.064-0.313-1.565c-0.25-0.438-0.563-0.877-0.939-1.253c-0.438-0.375-0.876-0.688-1.377-0.876
	C8.893,22.105,8.329,21.98,7.703,21.98z M21.98,22.419h1.628v6.638H21.98V22.419z"/>
</svg>
