<?xml version="1.0" encoding="utf-8"?>
<!-- Generator: Adobe Illustrator 16.0.0, SVG Export Plug-In . SVG Version: 6.00 Build 0)  -->
<!DOCTYPE svg PUBLIC "-//W3C//DTD SVG 1.1//EN" "http://www.w3.org/Graphics/SVG/1.1/DTD/svg11.dtd">
<svg version="1.1" id="Layer_1" xmlns="http://www.w3.org/2000/svg" xmlns:xlink="http://www.w3.org/1999/xlink" x="0px" y="0px"
	 width="32px" height="32px" viewBox="0 0 32 32" enable-background="new 0 0 32 32" xml:space="preserve">
<path d="M2.929,19.929l11.429,11.429c0.214,0.214,0.5,0.356,0.786,0.429C15.429,31.929,15.715,32,16,32
	c0.286,0,0.571-0.071,0.857-0.214c0.285-0.072,0.571-0.215,0.785-0.429l11.429-11.429c0.215-0.215,0.357-0.5,0.5-0.786
	c0.071-0.285,0.143-0.571,0.143-0.856c0-0.286-0.071-0.572-0.143-0.857c-0.143-0.286-0.285-0.571-0.5-0.786
	c-0.214-0.214-0.5-0.357-0.785-0.5C28,16.071,27.714,16,27.429,16c-0.286,0-0.571,0.071-0.857,0.143
	c-0.285,0.143-0.571,0.286-0.785,0.5l-7.5,7.571V2.286c0-0.357-0.072-0.643-0.144-0.929c-0.143-0.214-0.285-0.5-0.5-0.714
	c-0.214-0.214-0.5-0.357-0.714-0.5C16.643,0.071,16.357,0,16,0c-0.356,0-0.643,0.071-0.856,0.143c-0.286,0.143-0.5,0.286-0.715,0.5
	c-0.214,0.214-0.429,0.5-0.5,0.714c-0.143,0.286-0.214,0.572-0.214,0.929v21.928l-7.5-7.571c-0.144-0.071-0.286-0.214-0.357-0.286
	c-0.143-0.071-0.286-0.143-0.429-0.214C5.286,16.071,5.144,16.071,5,16c-0.143,0-0.285,0-0.429,0c-0.143,0-0.285,0-0.428,0
	C4,16.071,3.857,16.071,3.715,16.143c-0.144,0.071-0.286,0.143-0.357,0.214c-0.143,0.072-0.286,0.214-0.429,0.286
	c-0.214,0.215-0.357,0.5-0.429,0.786C2.357,17.714,2.286,18,2.286,18.286c0,0.285,0.071,0.571,0.214,0.856
	C2.571,19.429,2.715,19.714,2.929,19.929z"/>
</svg>
