<?xml version="1.0" encoding="utf-8"?>
<!-- Generator: Adobe Illustrator 16.0.0, SVG Export Plug-In . SVG Version: 6.00 Build 0)  -->
<!DOCTYPE svg PUBLIC "-//W3C//DTD SVG 1.1//EN" "http://www.w3.org/Graphics/SVG/1.1/DTD/svg11.dtd">
<svg version="1.1" id="Layer_1" xmlns="http://www.w3.org/2000/svg" xmlns:xlink="http://www.w3.org/1999/xlink" x="0px" y="0px"
	 width="32px" height="32px" viewBox="0 0 32 32" enable-background="new 0 0 32 32" xml:space="preserve">
<path d="M26.562,7.375C26.5,7.438,26.312,7.688,26,8.062c-0.312,0.438-0.812,0.875-1.438,1.375
	c-0.625,0.562-1.375,1.125-2.312,1.688s-2.062,1.125-3.312,1.625c0.062,0.188,0.188,0.312,0.25,0.5s0.188,0.312,0.25,0.5
	s0.125,0.312,0.188,0.5s0.188,0.312,0.25,0.5c0,0.062,0,0.062,0.062,0.125c0,0.062,0,0.125,0.062,0.188s0.062,0.125,0.125,0.188
	c0,0.062,0,0.125,0,0.188c1.188-0.125,2.312-0.188,3.375-0.188c1.062,0.062,2.062,0.125,2.938,0.188s1.625,0.188,2.188,0.25
	c0.562,0.125,0.938,0.188,1.062,0.188c-0.062-0.812-0.125-1.562-0.25-2.375c-0.125-0.75-0.312-1.5-0.562-2.188
	c-0.312-0.688-0.625-1.375-1-2.062S27.062,7.938,26.562,7.375z M12.812,2.75c0.062,0.125,0.312,0.438,0.625,0.875
	s0.75,1.062,1.25,1.75c0.438,0.688,1,1.5,1.562,2.438s1.062,1.875,1.625,2.938c1.25-0.438,2.312-0.938,3.188-1.5
	s1.625-1.062,2.188-1.562c0.562-0.438,0.938-0.875,1.25-1.25c0.312-0.312,0.5-0.562,0.562-0.625c-0.625-0.562-1.25-1.062-1.938-1.5
	s-1.438-0.75-2.188-1.062c-0.812-0.312-1.562-0.5-2.375-0.688C17.75,2.438,16.875,2.375,16,2.375c-0.312,0-0.562,0-0.812,0
	c-0.312,0-0.562,0-0.812,0.062s-0.5,0.062-0.75,0.125C13.312,2.625,13.062,2.688,12.812,2.75z M2.625,13.25
	c0.188,0,0.625,0,1.375-0.062c0.688,0,1.625-0.062,2.812-0.188c1.125-0.062,2.438-0.25,3.875-0.5c1.438-0.188,3-0.5,4.562-0.938
	c-0.562-1-1.125-1.938-1.688-2.875S12.438,6.938,12,6.25S11.125,5,10.812,4.5C10.5,4.062,10.25,3.75,10.188,3.625
	c-0.938,0.438-1.812,1-2.625,1.688S6,6.688,5.312,7.5s-1.25,1.75-1.688,2.688S2.812,12.188,2.625,13.25z M5.875,25.188
	C5.938,25,6.188,24.562,6.75,23.812c0.5-0.688,1.188-1.562,2.125-2.5s2.062-1.938,3.438-2.875c1.312-0.938,2.875-1.75,4.625-2.312
	c0.062,0,0.125,0,0.188-0.062c0.062,0,0.062,0,0.125,0s0.062,0,0.125-0.062c0.062,0,0.062,0,0.125,0
	c-0.062-0.188-0.188-0.438-0.25-0.625S17.062,15,17,14.812c-0.125-0.188-0.25-0.438-0.312-0.625s-0.188-0.312-0.312-0.5
	c-1.688,0.5-3.375,0.875-5,1.125C9.75,15.125,8.312,15.312,7,15.375c-1.312,0.125-2.375,0.188-3.188,0.188
	C3,15.625,2.5,15.625,2.312,15.625c0,0,0,0,0,0.062s0,0.062,0,0.125s0,0.062,0,0.062c0,0.062,0,0.062,0,0.125
	c0,0.875,0.062,1.75,0.25,2.562S3,20.188,3.312,20.938c0.312,0.812,0.625,1.562,1.062,2.25S5.312,24.562,5.875,25.188z
	 M21.312,28.625c-0.062-0.312-0.125-0.812-0.25-1.5c-0.125-0.625-0.312-1.375-0.5-2.312c-0.25-0.875-0.562-1.875-0.875-3
	c-0.375-1.125-0.812-2.312-1.25-3.562l0,0c-0.062,0-0.062,0-0.062,0l0,0c0,0,0,0-0.062,0c-1.938,0.688-3.562,1.438-4.875,2.375
	S11,22.5,10.188,23.312c-0.812,0.875-1.438,1.625-1.875,2.312s-0.625,1.062-0.688,1.188C8.188,27.25,8.812,27.688,9.5,28
	c0.625,0.375,1.312,0.688,2,0.938s1.438,0.438,2.188,0.562s1.5,0.188,2.312,0.188c0.438,0,0.938,0,1.438-0.062
	c0.438-0.062,0.938-0.125,1.375-0.25c0.438-0.062,0.875-0.188,1.312-0.312S20.938,28.812,21.312,28.625z M29.5,18.188
	c-0.125-0.062-0.438-0.125-0.938-0.25s-1.125-0.25-1.875-0.375C25.875,17.5,25,17.438,24.062,17.375c-1,0-2,0.062-3.062,0.25
	c0.438,1.188,0.812,2.375,1.125,3.438c0.312,1.125,0.625,2.125,0.812,2.938c0.188,0.875,0.375,1.625,0.5,2.188
	c0.062,0.562,0.125,1,0.188,1.188c0.812-0.562,1.5-1.125,2.188-1.812c0.625-0.688,1.188-1.375,1.688-2.188
	c0.5-0.75,0.938-1.562,1.25-2.438S29.312,19.125,29.5,18.188z M16,32c-2.188,0-4.25-0.438-6.188-1.25s-3.688-2-5.125-3.438
	s-2.625-3.188-3.438-5.125S0,18.188,0,16s0.438-4.312,1.25-6.25s2-3.625,3.438-5.062S7.875,2.062,9.812,1.25S13.812,0,16,0
	s4.312,0.438,6.25,1.25s3.625,2,5.062,3.438s2.625,3.125,3.438,5.062S32,13.812,32,16s-0.438,4.25-1.25,6.188s-2,3.688-3.438,5.125
	s-3.125,2.625-5.062,3.438S18.188,32,16,32z"/>
</svg>
