<?xml version="1.0" encoding="utf-8"?>
<!-- Generator: Adobe Illustrator 16.0.0, SVG Export Plug-In . SVG Version: 6.00 Build 0)  -->
<!DOCTYPE svg PUBLIC "-//W3C//DTD SVG 1.1//EN" "http://www.w3.org/Graphics/SVG/1.1/DTD/svg11.dtd">
<svg version="1.1" id="Layer_1" xmlns="http://www.w3.org/2000/svg" xmlns:xlink="http://www.w3.org/1999/xlink" x="0px" y="0px"
	 width="32px" height="32px" viewBox="0 0 32 32" enable-background="new 0 0 32 32" xml:space="preserve">
<path d="M10.125,23L16,18.125L6.5,12.25l-5.75,4.625L10.125,23z M16,18.125l5.875,4.938l9.375-6.188L25.5,12.25L16,18.125z M32,6.75
	l-9.5-5.938L16,6.062l9.5,6.188L32,6.75z M21.75,26c-0.062,0-0.062,0-0.125-0.062c-0.062,0-0.062,0-0.125,0s-0.062,0-0.125-0.062
	c-0.062,0-0.062,0-0.125-0.062L16,21.438l-5.25,4.375c-0.062,0.062-0.062,0.062-0.125,0.062c-0.062,0.062-0.062,0.062-0.125,0.062
	s-0.062,0-0.125,0C10.312,26,10.312,26,10.25,26s-0.062,0-0.125,0s-0.062,0-0.062-0.062c-0.062,0-0.062,0-0.125-0.062
	c-0.062,0-0.062,0-0.125,0l-3.875-2.562v1.5L16,31.188l10.062-6.375v-1.5l-3.938,2.562c0,0,0,0-0.062,0
	C22,25.938,22,25.938,22,25.938C21.938,26,21.938,26,21.875,26S21.812,26,21.75,26z M9.5,0.812L0,6.75l6.5,5.5L16,6.062L9.5,0.812z"
	/>
</svg>
