<?xml version="1.0" encoding="utf-8"?>
<!-- Generator: Adobe Illustrator 16.0.0, SVG Export Plug-In . SVG Version: 6.00 Build 0)  -->
<!DOCTYPE svg PUBLIC "-//W3C//DTD SVG 1.1//EN" "http://www.w3.org/Graphics/SVG/1.1/DTD/svg11.dtd">
<svg version="1.1" id="Layer_1" xmlns="http://www.w3.org/2000/svg" xmlns:xlink="http://www.w3.org/1999/xlink" x="0px" y="0px"
	 width="32px" height="32px" viewBox="0 0 32 32" enable-background="new 0 0 32 32" xml:space="preserve">
<path d="M18.531,32h-6V16h-4v-5.5h4V7.25c0-1.125,0.125-2.125,0.312-3.062c0.188-0.875,0.5-1.625,1-2.25
	c0.438-0.625,1.125-1.125,1.938-1.438S17.719,0,19.031,0h4.438v5.5h-2.75c-0.562,0-0.938,0.062-1.25,0.125
	c-0.312,0.125-0.5,0.25-0.625,0.438S18.656,6.5,18.594,6.75c-0.062,0.312-0.062,0.625-0.062,1v2.75h4.938L22.906,16h-4.375V32z"/>
</svg>
