<?xml version="1.0" encoding="utf-8"?>
<!-- Generator: Adobe Illustrator 16.0.0, SVG Export Plug-In . SVG Version: 6.00 Build 0)  -->
<!DOCTYPE svg PUBLIC "-//W3C//DTD SVG 1.1//EN" "http://www.w3.org/Graphics/SVG/1.1/DTD/svg11.dtd">
<svg version="1.1" id="Layer_1" xmlns="http://www.w3.org/2000/svg" xmlns:xlink="http://www.w3.org/1999/xlink" x="0px" y="0px"
	 width="32px" height="32px" viewBox="0 0 32 32" enable-background="new 0 0 32 32" xml:space="preserve">
<path d="M18,16c0-0.938,0.188-1.875,0.562-2.75c0.375-0.812,0.875-1.562,1.5-2.188s1.375-1.125,2.25-1.5C23.125,9.188,24.062,9,25,9
	s1.875,0.188,2.75,0.562c0.812,0.375,1.562,0.875,2.188,1.5s1.125,1.375,1.5,2.188C31.812,14.125,32,15.062,32,16
	s-0.188,1.875-0.562,2.688c-0.375,0.875-0.875,1.625-1.5,2.25s-1.375,1.125-2.188,1.5C26.875,22.812,25.938,23,25,23
	s-1.875-0.188-2.688-0.562c-0.875-0.375-1.625-0.875-2.25-1.5s-1.125-1.375-1.5-2.25C18.188,17.875,18,16.938,18,16z M0,16
	c0-0.938,0.188-1.875,0.562-2.75c0.375-0.812,0.875-1.562,1.5-2.188s1.375-1.125,2.25-1.5C5.125,9.188,6.062,9,7,9
	s1.875,0.188,2.75,0.562c0.812,0.375,1.562,0.875,2.188,1.5s1.125,1.375,1.5,2.188C13.812,14.125,14,15.062,14,16
	s-0.188,1.875-0.562,2.688c-0.375,0.875-0.875,1.625-1.5,2.25s-1.375,1.125-2.188,1.5C8.875,22.812,7.938,23,7,23
	s-1.875-0.188-2.688-0.562c-0.875-0.375-1.625-0.875-2.25-1.5s-1.125-1.375-1.5-2.25C0.188,17.875,0,16.938,0,16z"/>
</svg>
