<?xml version="1.0" encoding="utf-8"?>
<!-- Generator: Adobe Illustrator 16.0.0, SVG Export Plug-In . SVG Version: 6.00 Build 0)  -->
<!DOCTYPE svg PUBLIC "-//W3C//DTD SVG 1.1//EN" "http://www.w3.org/Graphics/SVG/1.1/DTD/svg11.dtd">
<svg version="1.1" id="Layer_1" xmlns="http://www.w3.org/2000/svg" xmlns:xlink="http://www.w3.org/1999/xlink" x="0px" y="0px"
	 width="32px" height="32px" viewBox="0 0 32 32" enable-background="new 0 0 32 32" xml:space="preserve">
<path d="M29.91,30.939L16.687,0.499c-0.062-0.125-0.062-0.187-0.125-0.25c-0.062,0-0.062-0.062-0.125-0.125
	c-0.062-0.062-0.125-0.062-0.187-0.062S16.062,0.062,16,0c-0.062,0.062-0.125,0.062-0.187,0.062c-0.062,0-0.125,0-0.188,0.062
	c-0.062,0.062-0.062,0.125-0.125,0.125c-0.062,0.062-0.125,0.125-0.125,0.25L2.09,30.939c-0.062,0.062-0.062,0.125-0.062,0.188
	s0,0.124,0,0.187s0,0.125,0.062,0.125c0,0.062,0,0.125,0.062,0.25c0.062,0,0.062,0,0.125,0.062c0.062,0.062,0.125,0.125,0.187,0.125
	s0.062,0,0.125,0.062C2.651,32,2.713,32,2.776,31.938L14.004,32v-6.737l-3.992-1.247c-0.125-0.062-0.25-0.062-0.375-0.125
	c-0.125-0.062-0.25-0.125-0.312-0.249c-0.062-0.062-0.125-0.188-0.188-0.312c-0.062-0.062-0.125-0.187-0.125-0.374
	c0-0.062,0.062-0.188,0.125-0.374c0.062-0.125,0.125-0.25,0.188-0.312c0.062-0.062,0.187-0.187,0.312-0.249
	c0.125-0.062,0.25-0.062,0.375,0l3.992,1.247v-6.237c0-0.188,0.062-0.312,0.125-0.437c0.062-0.062,0.125-0.188,0.188-0.312
	c0.062-0.062,0.187-0.124,0.312-0.187c0.125-0.062,0.25-0.062,0.375-0.125l1.996,0.062c0.125-0.062,0.25,0,0.374,0.062
	c0.125,0.062,0.25,0.125,0.312,0.187c0.062,0.062,0.187,0.188,0.249,0.312c0.062,0.187,0.062,0.312,0.062,0.374v1.56l2.994-1.56
	c0.125,0.062,0.25,0.062,0.374,0.125c0.125,0.062,0.25,0.125,0.312,0.187c0.062,0.125,0.187,0.25,0.249,0.312
	c0.062,0.125,0.062,0.249,0.062,0.437c0,0.062,0,0.188-0.062,0.312c-0.062,0.188-0.187,0.25-0.249,0.312s-0.188,0.187-0.312,0.249
	c-0.124,0.062-0.249,0.125-0.374,0.062l-2.994,1.56v3.431l4.99-2.932c0.125-0.062,0.25-0.062,0.374,0
	c0.125,0.062,0.25,0.188,0.312,0.249c0.062,0.062,0.187,0.188,0.249,0.312c0.062,0.187,0.062,0.312,0.062,0.374
	c0,0.188,0,0.312-0.062,0.374c-0.062,0.125-0.187,0.25-0.249,0.312c-0.062,0.124-0.188,0.187-0.312,0.249
	c-0.124,0.062-0.249,0.062-0.374,0.125l-4.99,2.932V32l11.229-0.062c0.062,0.062,0.124,0.062,0.187,0s0.125-0.062,0.188-0.062
	s0.062-0.062,0.125-0.125c0.062-0.062,0.062-0.062,0.124-0.062c0.062-0.125,0.062-0.188,0.125-0.25c0,0,0-0.062,0-0.125
	s0-0.124,0-0.187S29.973,31.002,29.91,30.939z"/>
</svg>
