<?xml version="1.0" encoding="utf-8"?>
<!-- Generator: Adobe Illustrator 16.0.0, SVG Export Plug-In . SVG Version: 6.00 Build 0)  -->
<!DOCTYPE svg PUBLIC "-//W3C//DTD SVG 1.1//EN" "http://www.w3.org/Graphics/SVG/1.1/DTD/svg11.dtd">
<svg version="1.1" id="Layer_1" xmlns="http://www.w3.org/2000/svg" xmlns:xlink="http://www.w3.org/1999/xlink" x="0px" y="0px"
	 width="32px" height="32px" viewBox="0 0 32 32" enable-background="new 0 0 32 32" xml:space="preserve">
<path d="M31.966,13.747v4.584c0,0.218-0.072,0.363-0.146,0.437c-0.146,0.218-0.291,0.363-0.437,0.291l-3.856,0.654
	c-0.218,0.728-0.509,1.383-0.8,1.893c0.509,0.654,1.236,1.601,2.183,2.91c0.146,0.072,0.219,0.291,0.219,0.51
	c0,0.072-0.073,0.218-0.146,0.437c-0.364,0.509-1.092,1.236-2.11,2.255c-0.946,0.946-1.601,1.383-1.892,1.456
	c-0.219-0.073-0.364-0.073-0.583-0.146l-2.837-2.329c-0.655,0.364-1.237,0.655-1.893,0.801c-0.218,1.965-0.437,3.201-0.654,3.856
	c-0.073,0.437-0.364,0.645-0.728,0.571L13.708,32c-0.218-0.073-0.363-0.073-0.509-0.136c-0.146-0.218-0.219-0.363-0.291-0.509
	l-0.582-3.856c-0.655-0.219-1.311-0.437-1.819-0.801l-2.979,2.329C7.456,29.1,7.237,29.1,7.02,29.173
	c-0.219-0.073-0.364-0.146-0.51-0.219c-1.746-1.601-2.91-2.765-3.42-3.492c-0.072-0.219-0.146-0.364-0.146-0.437
	c0-0.219,0.073-0.438,0.146-0.51c0.219-0.364,0.582-0.801,1.092-1.383c0.509-0.654,0.873-1.164,1.091-1.455
	c-0.363-0.728-0.582-1.383-0.8-2.037l-3.856-0.655c-0.146,0-0.291-0.072-0.437-0.291c-0.073-0.072-0.146-0.218-0.146-0.437v-4.584
	c0-0.218,0.072-0.364,0.146-0.437c0.146-0.218,0.291-0.291,0.437-0.291l3.856-0.655c0.218-0.582,0.437-1.237,0.8-1.892
	c-0.509-0.8-1.31-1.746-2.255-2.905C2.944,7.421,2.872,7.203,2.872,6.985c0-0.073,0.072-0.218,0.146-0.437
	c0.363-0.437,1.091-1.164,2.037-2.255C6.073,3.347,6.729,2.91,7.02,2.837C7.237,2.91,7.383,2.983,7.602,3.056l2.832,2.256
	c0.655-0.364,1.237-0.582,1.893-0.8c0.218-1.965,0.437-3.202,0.582-3.856c0.072-0.437,0.363-0.655,0.8-0.583L18.287,0
	c0.218,0.072,0.363,0.146,0.509,0.218c0.146,0.146,0.219,0.291,0.219,0.437l0.582,3.856c0.654,0.218,1.31,0.437,1.892,0.8
	l2.983-2.329c0.073-0.073,0.291-0.073,0.51-0.146c0.146,0.073,0.291,0.146,0.509,0.218c1.819,1.674,2.91,2.838,3.42,3.493
	c0.073,0.146,0.146,0.291,0.146,0.437c0,0.218-0.072,0.437-0.146,0.509c-0.219,0.364-0.582,0.795-1.092,1.377
	c-0.509,0.655-0.873,1.164-1.091,1.455c0.363,0.728,0.582,1.383,0.8,2.038l3.856,0.655c0.146,0,0.291,0.073,0.437,0.291
	C31.894,13.383,31.966,13.528,31.966,13.747z M21.343,16.002c0-1.456-0.509-2.692-1.601-3.784c-1.019-1.019-2.256-1.528-3.778-1.601
	c-1.455,0.073-2.692,0.583-3.711,1.601c-1.092,1.091-1.601,2.328-1.601,3.784c0,1.528,0.509,2.765,1.601,3.71
	c1.019,1.092,2.256,1.674,3.711,1.602c1.522,0.072,2.76-0.51,3.778-1.602C20.834,18.768,21.343,17.53,21.343,16.002z"/>
</svg>
