<?xml version="1.0" encoding="utf-8"?>
<!-- Generator: Adobe Illustrator 16.0.0, SVG Export Plug-In . SVG Version: 6.00 Build 0)  -->
<!DOCTYPE svg PUBLIC "-//W3C//DTD SVG 1.1//EN" "http://www.w3.org/Graphics/SVG/1.1/DTD/svg11.dtd">
<svg version="1.1" id="Layer_1" xmlns="http://www.w3.org/2000/svg" xmlns:xlink="http://www.w3.org/1999/xlink" x="0px" y="0px"
	 width="32px" height="32px" viewBox="0 0 32 32" enable-background="new 0 0 32 32" xml:space="preserve">
<path d="M32,8.469h-6v-6h-2v6h-6v2h6v6h2v-6h6V8.469z M9.375,13.844c-0.562,0-1.062-0.125-1.562-0.438s-0.938-0.688-1.375-1.188
	c-0.438-0.438-0.75-1-1.062-1.625s-0.5-1.312-0.562-2s-0.062-1.375,0.062-2C5,6.031,5.188,5.469,5.5,5.031s0.688-0.812,1.125-1.062
	C7.062,3.781,7.5,3.656,8.062,3.656s1.062,0.125,1.562,0.438S10.562,4.781,11,5.219s0.75,1,1.062,1.625s0.5,1.312,0.562,2
	s0.062,1.375-0.062,1.938c-0.125,0.625-0.312,1.188-0.625,1.625s-0.625,0.812-1.062,1.062S9.938,13.844,9.375,13.844z
	 M14.562,22.969c0,0.062,0,0.125,0.062,0.188c0,0.062,0,0.125,0,0.188s0,0.188,0,0.25s0,0.188,0,0.25
	c0,0.562-0.125,1.125-0.312,1.688s-0.562,1-1,1.375c-0.5,0.375-1.125,0.688-1.875,0.875c-0.812,0.25-1.75,0.375-2.875,0.375
	c-0.812,0-1.5-0.125-2.188-0.375c-0.688-0.188-1.312-0.5-1.75-0.938c-0.5-0.438-0.875-0.875-1.188-1.438S3,24.281,3,23.719
	c0-0.625,0.188-1.188,0.5-1.75c0.312-0.5,0.812-0.938,1.375-1.375c0.562-0.375,1.188-0.688,1.938-0.938
	c0.75-0.188,1.5-0.312,2.312-0.312c0.188,0,0.375,0,0.562,0c0.188,0.062,0.312,0.062,0.5,0.062c0.188,0.062,0.312,0.062,0.5,0.125
	s0.312,0.062,0.5,0.125c0.438,0.312,0.875,0.625,1.25,0.875c0.312,0.25,0.625,0.5,0.938,0.688c0.312,0.25,0.562,0.5,0.75,0.75
	C14.312,22.281,14.5,22.594,14.562,22.969z M17.5,2.469c0,0-0.312,0-1,0s-1.5,0-2.438,0s-1.812,0-2.75,0s-1.688,0-2.188,0
	c-0.938,0-1.875,0.188-2.75,0.5S4.75,3.719,4.062,4.281s-1.188,1.25-1.625,1.938C2,6.969,1.812,7.781,1.812,8.594
	s0.188,1.625,0.5,2.375S3,12.344,3.562,12.906s1.188,1,2,1.312s1.688,0.5,2.625,0.5c0.062,0,0.188,0,0.25,0s0.125,0,0.188-0.062
	c0.062,0,0.125,0,0.188,0s0.062,0,0.125,0c-0.062,0.125-0.062,0.25-0.125,0.375s-0.125,0.25-0.125,0.375
	c-0.062,0.125-0.062,0.25-0.062,0.375c-0.062,0.188-0.062,0.312-0.062,0.438c0,0.25,0,0.5,0.062,0.688s0.125,0.375,0.25,0.562
	c0.062,0.188,0.188,0.375,0.375,0.562c0.125,0.188,0.25,0.312,0.438,0.5c-0.125,0-0.25,0-0.375,0s-0.25,0-0.312,0
	c-0.125,0-0.25,0-0.375,0s-0.25,0-0.375,0c-1.188,0-2.25,0.188-3.25,0.5c-1,0.375-1.875,0.812-2.625,1.375s-1.312,1.25-1.75,1.938
	C0.188,23.094,0,23.844,0,24.594s0.25,1.438,0.688,2c0.438,0.625,1.062,1.125,1.875,1.562c0.75,0.438,1.625,0.812,2.688,1
	c1.062,0.25,2.125,0.375,3.312,0.375c1.312,0,2.5-0.188,3.562-0.562c1-0.312,1.875-0.812,2.562-1.375s1.25-1.188,1.625-1.938
	c0.312-0.688,0.5-1.438,0.5-2.188c0-0.562-0.062-1.125-0.125-1.625c-0.125-0.5-0.312-1-0.5-1.438
	c-0.25-0.438-0.562-0.812-0.938-1.25c-0.375-0.375-0.812-0.75-1.375-1.125c-0.188-0.125-0.438-0.312-0.688-0.562
	c-0.25-0.188-0.5-0.438-0.688-0.688c-0.25-0.188-0.438-0.438-0.562-0.688c-0.188-0.25-0.25-0.5-0.25-0.688s0-0.438,0.062-0.625
	s0.125-0.312,0.25-0.5c0.062-0.188,0.25-0.375,0.438-0.562s0.5-0.438,0.812-0.688c0.375-0.25,0.688-0.562,1-0.875
	s0.562-0.688,0.75-1.062s0.375-0.75,0.5-1.188c0.062-0.375,0.125-0.812,0.125-1.25c0-0.562-0.062-1.062-0.125-1.562
	c-0.125-0.5-0.312-1-0.5-1.438c-0.25-0.438-0.562-0.812-0.875-1.125s-0.75-0.5-1.188-0.688h2.688L17.5,2.469z"/>
</svg>
