<?xml version="1.0" encoding="utf-8"?>
<!-- Generator: Adobe Illustrator 16.0.0, SVG Export Plug-In . SVG Version: 6.00 Build 0)  -->
<!DOCTYPE svg PUBLIC "-//W3C//DTD SVG 1.1//EN" "http://www.w3.org/Graphics/SVG/1.1/DTD/svg11.dtd">
<svg version="1.1" id="Layer_1" xmlns="http://www.w3.org/2000/svg" xmlns:xlink="http://www.w3.org/1999/xlink" x="0px" y="0px"
	 width="32px" height="32px" viewBox="0 0 32 32" enable-background="new 0 0 32 32" xml:space="preserve">
<path d="M32,16c0-2.188-0.438-4.312-1.25-6.25s-2-3.625-3.438-5.062S24.188,2.062,22.25,1.25S18.188,0,16,0s-4.25,0.438-6.188,1.25
	s-3.688,2-5.125,3.438S2.062,7.812,1.25,9.75S0,13.812,0,16c0,0.5,0,1,0.062,1.438s0.125,0.938,0.188,1.375s0.188,0.875,0.312,1.312
	S0.812,21,0.938,21.438C0.812,21.75,0.688,22,0.562,22.25c-0.125,0.312-0.25,0.562-0.312,0.875S0.125,23.688,0.062,24S0,24.688,0,25
	c0,0.688,0.125,1.375,0.312,2c0.188,0.688,0.438,1.25,0.812,1.812c0.312,0.562,0.75,1,1.25,1.438S3.438,31,4,31.312V18.688
	c-0.188,0.062-0.312,0.188-0.438,0.25C3.375,19,3.25,19.125,3.125,19.188c-0.188,0.062-0.312,0.188-0.438,0.25
	c-0.125,0.125-0.25,0.25-0.375,0.375c-0.062-0.188-0.125-0.438-0.125-0.688c-0.062-0.188-0.062-0.438-0.062-0.688
	c-0.062-0.25-0.062-0.5-0.062-0.75C2,17.5,2,17.25,2,17c0-1.938,0.375-3.75,1.125-5.438c0.688-1.688,1.688-3.188,3-4.5
	c1.25-1.25,2.75-2.25,4.438-3C12.25,3.375,14.062,3,16,3s3.75,0.375,5.438,1.062c1.688,0.75,3.188,1.75,4.5,3
	c1.25,1.312,2.25,2.812,3,4.5C29.625,13.25,30,15.062,30,17c0,0.25,0,0.5,0,0.688c-0.062,0.25-0.062,0.5-0.062,0.75
	c-0.062,0.25-0.062,0.5-0.062,0.688c-0.062,0.25-0.125,0.5-0.188,0.688c-0.125-0.125-0.25-0.25-0.375-0.375
	c-0.125-0.062-0.25-0.188-0.375-0.25C28.75,19.125,28.625,19,28.5,18.938c-0.188-0.062-0.312-0.188-0.5-0.25v12.625
	c0.562-0.312,1.125-0.625,1.625-1.062s0.938-0.875,1.312-1.438C31.25,28.25,31.562,27.688,31.75,27c0.188-0.625,0.25-1.312,0.25-2
	c0-0.312,0-0.688-0.062-1s-0.125-0.562-0.188-0.875s-0.188-0.562-0.312-0.875c-0.125-0.25-0.25-0.5-0.375-0.812
	c0.125-0.438,0.25-0.875,0.375-1.312s0.25-0.875,0.312-1.312s0.125-0.938,0.188-1.375S32,16.5,32,16z M24,18v14h1
	c0.062,0,0.188,0,0.25,0s0.188,0,0.25,0s0.188,0,0.25-0.062c0.062,0,0.188,0,0.25,0V18.062c-0.062,0-0.188,0-0.25-0.062
	c-0.062,0-0.188,0-0.25,0s-0.188,0-0.25,0s-0.188,0-0.25,0H24z M6,18.062v13.875c0.062,0,0.188,0,0.25,0C6.312,32,6.438,32,6.5,32
	s0.188,0,0.25,0S6.938,32,7,32h1V18H7c-0.062,0-0.188,0-0.25,0s-0.188,0-0.25,0s-0.188,0-0.25,0C6.188,18.062,6.062,18.062,6,18.062
	z"/>
</svg>
