<?xml version="1.0" encoding="utf-8"?>
<!-- Generator: Adobe Illustrator 16.0.0, SVG Export Plug-In . SVG Version: 6.00 Build 0)  -->
<!DOCTYPE svg PUBLIC "-//W3C//DTD SVG 1.1//EN" "http://www.w3.org/Graphics/SVG/1.1/DTD/svg11.dtd">
<svg version="1.1" id="Layer_1" xmlns="http://www.w3.org/2000/svg" xmlns:xlink="http://www.w3.org/1999/xlink" x="0px" y="0px"
	 width="32px" height="32px" viewBox="0 0 32 32" enable-background="new 0 0 32 32" xml:space="preserve">
<g>
	<path d="M21.073,7.684c0,0.212-0.07,0.352-0.209,0.492l-7.861,7.859l7.861,7.859c0.139,0.142,0.209,0.282,0.209,0.491
		c0,0.141-0.07,0.281-0.209,0.422l-0.984,1.051C19.741,25.93,19.601,26,19.391,26c-0.141,0-0.281-0.07-0.42-0.142l-9.334-9.403
		c-0.141-0.07-0.21-0.211-0.21-0.421s0.07-0.351,0.21-0.491l9.333-9.333C19.109,6.069,19.25,6,19.391,6
		c0.211,0,0.351,0.069,0.489,0.21l0.984,0.983C21.003,7.333,21.073,7.474,21.073,7.684z"/>
	<path d="M22.574,7.684c0,0.212-0.07,0.352-0.209,0.492l-7.861,7.859l7.861,7.859c0.139,0.142,0.209,0.282,0.209,0.491
		c0,0.141-0.07,0.281-0.209,0.422l-0.984,1.051C21.242,25.93,21.102,26,20.891,26c-0.141,0-0.281-0.07-0.42-0.142l-9.334-9.403
		c-0.141-0.07-0.211-0.211-0.211-0.421s0.07-0.351,0.211-0.491l9.332-9.333C20.609,6.069,20.75,6,20.891,6
		c0.211,0,0.352,0.069,0.49,0.21l0.984,0.983C22.504,7.333,22.574,7.474,22.574,7.684z"/>
</g>
</svg>
