<?xml version="1.0" encoding="utf-8"?>
<!-- Generator: Adobe Illustrator 16.0.0, SVG Export Plug-In . SVG Version: 6.00 Build 0)  -->
<!DOCTYPE svg PUBLIC "-//W3C//DTD SVG 1.1//EN" "http://www.w3.org/Graphics/SVG/1.1/DTD/svg11.dtd">
<svg version="1.1" id="Layer_1" xmlns="http://www.w3.org/2000/svg" xmlns:xlink="http://www.w3.org/1999/xlink" x="0px" y="0px"
	 width="32px" height="32px" viewBox="0 0 32 32" enable-background="new 0 0 32 32" xml:space="preserve">
<path d="M11.125,16.781v0.062c0-0.75,0-1.438,0-2.062c-0.062-0.562-0.062-1.188-0.062-1.812C11,12.406,11,11.844,11,11.281
	c-0.062-0.5-0.062-1-0.062-1.562l5.938,0.062l0.312,3l0.125,0.062c0.188-0.375,0.5-0.75,0.938-1.188
	c0.375-0.375,0.875-0.75,1.438-1.125s1.188-0.688,1.938-0.938c0.75-0.188,1.562-0.312,2.5-0.375c1.125,0.062,2.188,0.25,3.125,0.625
	s1.812,0.938,2.5,1.75s1.25,1.75,1.688,2.938C31.812,15.719,32,17.094,32,18.781v12.938l-6.875,0.062v-12.25
	c0-0.688-0.062-1.312-0.188-1.938c-0.125-0.562-0.312-1.062-0.562-1.5c-0.312-0.375-0.625-0.688-1.062-0.938s-1-0.375-1.625-0.312
	c-0.438-0.062-0.875,0-1.25,0.188c-0.438,0.188-0.75,0.375-1.062,0.562c-0.312,0.25-0.5,0.5-0.688,0.812s-0.375,0.625-0.5,0.938
	c-0.062,0.188-0.062,0.312-0.125,0.375C18,17.844,18,17.969,18,18.156c-0.062,0.188-0.062,0.312-0.062,0.438c0,0.188,0,0.312,0,0.5
	v12.625l-6.812,0.062V16.781z M0.188,31.719V9.781L7,9.719v22.062L0.188,31.719z M7.25,3.656c0,0.438-0.062,0.875-0.25,1.312
	S6.562,5.781,6.25,6.094s-0.688,0.5-1.125,0.688s-1,0.312-1.562,0.25c-0.562,0.062-1-0.062-1.438-0.25S1.312,6.406,1,6.094
	S0.438,5.406,0.25,4.969S0,4.094,0,3.656c0-0.5,0.062-0.938,0.25-1.375C0.438,1.906,0.688,1.531,1,1.219s0.75-0.562,1.188-0.75
	c0.438-0.125,0.875-0.188,1.438-0.25c0.562,0.062,1.125,0.125,1.562,0.25c0.438,0.188,0.75,0.438,1.062,0.75S6.812,1.906,7,2.281
	C7.188,2.719,7.25,3.156,7.25,3.656z"/>
</svg>
