<?xml version="1.0" encoding="utf-8"?>
<!-- Generator: Adobe Illustrator 16.0.0, SVG Export Plug-In . SVG Version: 6.00 Build 0)  -->
<!DOCTYPE svg PUBLIC "-//W3C//DTD SVG 1.1//EN" "http://www.w3.org/Graphics/SVG/1.1/DTD/svg11.dtd">
<svg version="1.1" id="Layer_1" xmlns="http://www.w3.org/2000/svg" xmlns:xlink="http://www.w3.org/1999/xlink" x="0px" y="0px"
	 width="32px" height="32px" viewBox="0 0 32 32" enable-background="new 0 0 32 32" xml:space="preserve">
<path d="M15.969,16.688c1.188,0,2.188-0.312,3-1c0.812-0.625,1.562-1.438,2.188-2.375s1.062-2,1.375-3.125s0.438-2.188,0.5-3.125
	c-0.062-1-0.25-1.938-0.562-2.812c-0.375-0.812-0.875-1.562-1.5-2.188c-0.688-0.625-1.438-1.125-2.25-1.5S16.969,0,15.969,0
	c-0.938,0-1.875,0.188-2.688,0.562c-0.875,0.375-1.625,0.875-2.25,1.5s-1.125,1.375-1.5,2.188c-0.375,0.875-0.562,1.812-0.5,2.812
	c-0.062,0.938,0.125,2,0.438,3.125s0.75,2.188,1.312,3.125s1.25,1.75,2.188,2.375C13.844,16.375,14.844,16.688,15.969,16.688z
	 M28.156,23.062h-0.062c-0.312-0.438-0.688-0.875-1.062-1.25c-0.438-0.375-0.812-0.75-1.25-1.062s-0.938-0.562-1.5-0.812
	c-0.562-0.188-1.125-0.375-1.688-0.562l-2.312,7.938c0.062,0.188,0,0.375-0.062,0.5c-0.062,0.188-0.188,0.312-0.25,0.438
	c-0.125,0.125-0.25,0.25-0.438,0.312s-0.375,0.125-0.5,0.125c-0.25,0-0.438-0.062-0.562-0.125s-0.25-0.188-0.375-0.312
	c-0.188-0.125-0.25-0.25-0.312-0.438c-0.062-0.125-0.125-0.312-0.188-0.5L17.656,21c-0.062-0.25-0.062-0.5-0.125-0.688
	s-0.188-0.312-0.375-0.5c-0.188-0.125-0.312-0.25-0.5-0.375c-0.188-0.062-0.438-0.125-0.688-0.125c-0.188,0-0.438,0.062-0.625,0.125
	c-0.25,0.125-0.438,0.25-0.562,0.375c-0.125,0.188-0.25,0.312-0.312,0.5C14.344,20.5,14.281,20.75,14.344,21l-0.062,6.312
	c0.062,0.188,0,0.375-0.062,0.5c-0.062,0.188-0.188,0.312-0.25,0.438c-0.125,0.125-0.25,0.25-0.438,0.312s-0.375,0.125-0.5,0.125
	c-0.25,0-0.438-0.062-0.562-0.125s-0.25-0.188-0.375-0.312c-0.188-0.125-0.25-0.25-0.312-0.438c-0.062-0.125-0.125-0.312-0.188-0.5
	l-2.188-7.938c-0.688,0.188-1.25,0.375-1.75,0.562c-0.5,0.25-1,0.5-1.438,0.812s-0.875,0.688-1.25,1.062s-0.75,0.812-1.125,1.25
	c-0.125,0.188-0.25,0.375-0.375,0.625C3.344,24,3.281,24.25,3.219,24.5c-0.062,0.312-0.062,0.562-0.125,0.812S2.969,25.812,3.031,26
	l-0.062,3.312c0.062,0.375,0.125,0.75,0.25,1.062c0.062,0.312,0.25,0.625,0.562,0.812c0.25,0.25,0.5,0.438,0.812,0.562
	C4.906,31.938,5.219,32,5.656,32h20.625c0.438,0,0.75-0.062,1.062-0.25c0.312-0.125,0.562-0.312,0.875-0.562
	c0.25-0.188,0.438-0.5,0.562-0.812s0.188-0.688,0.25-1.062L28.969,26c0.062-0.188,0.062-0.438,0-0.688s-0.125-0.5-0.188-0.812
	c-0.062-0.25-0.188-0.5-0.312-0.812C28.344,23.438,28.219,23.25,28.156,23.062z"/>
</svg>
