<?xml version="1.0" encoding="utf-8"?>
<!-- Generator: Adobe Illustrator 16.0.0, SVG Export Plug-In . SVG Version: 6.00 Build 0)  -->
<!DOCTYPE svg PUBLIC "-//W3C//DTD SVG 1.1//EN" "http://www.w3.org/Graphics/SVG/1.1/DTD/svg11.dtd">
<svg version="1.1" id="Layer_1" xmlns="http://www.w3.org/2000/svg" xmlns:xlink="http://www.w3.org/1999/xlink" x="0px" y="0px"
	 width="32px" height="32px" viewBox="0 0 32 32" enable-background="new 0 0 32 32" xml:space="preserve">
<path d="M2.526,11.478v-0.062c0.312-0.312,0.624-0.561,0.998-0.811c0.374-0.25,0.749-0.437,1.185-0.562
	C5.146,9.98,5.583,9.918,6.02,9.918s0.811,0.062,1.248,0.25c0.25,0.062,0.499,0.125,0.749,0.312
	c0.187,0.187,0.437,0.312,0.624,0.437c0.188,0.188,0.375,0.375,0.562,0.562c0.187,0.25,0.312,0.437,0.499,0.624
	c0.25-0.188,0.562-0.437,0.874-0.687c0.312-0.187,0.686-0.374,0.998-0.499c0.312-0.125,0.686-0.25,1.06-0.374
	c0.375-0.062,0.749-0.062,1.186,0c0.499-0.062,0.998,0,1.435,0.187s0.874,0.375,1.31,0.624c0.374,0.25,0.748,0.561,1.061,0.936
	c0.312,0.437,0.562,0.811,0.811,1.185c0.25-0.187,0.499-0.374,0.812-0.562c0.249-0.187,0.499-0.374,0.811-0.499
	c0.249-0.125,0.562-0.25,0.873-0.374c0.312-0.125,0.562-0.187,0.873-0.187c0.562-0.188,1.186-0.25,1.81-0.188
	c0.562,0.062,1.185,0.125,1.746,0.25c0.562,0.188,1.061,0.437,1.622,0.749c0.499,0.312,0.936,0.687,1.372,1.061
	c0.312,0.375,0.624,0.749,0.936,1.123c0.25,0.374,0.499,0.811,0.687,1.248c0.188,0.437,0.312,0.936,0.437,1.372
	c0.062,0.437,0.125,0.936,0.062,1.497c0.062,1.061,0.062,2.121,0.062,3.182c0,1.122,0,2.183,0,3.243s0,2.184,0,3.307
	c0,1.122,0,2.183,0,3.243c-1.186,0.062-2.433,0.062-3.618,0c-1.185,0-2.433,0-3.618,0c-1.185,0.062-2.433,0.062-3.617,0
	c-1.186,0-2.433,0-3.681,0.062c0-0.562,0-1.123,0-1.685s0-1.122,0.062-1.684c0-0.562,0-1.061,0-1.622C16,26.448,16,25.887,16,25.325
	c-0.624,0.062-1.248,0.062-1.872,0c-0.686,0-1.31,0-1.934,0c-0.686,0.062-1.31,0.062-1.934,0c-0.686,0-1.31,0-1.996,0.062
	c0-0.312,0-0.624,0-0.873c0-0.25,0-0.499,0-0.811c0-0.312,0-0.562,0-0.812c0-0.249,0-0.562,0-0.873
	c-0.562,0.062-1.123,0.062-1.684,0c-0.562,0-1.123,0-1.685,0c-0.561,0.062-1.123,0.062-1.684,0c-0.562,0-1.185,0-1.747,0.062v-8.109
	c0.062-0.187,0.125-0.437,0.187-0.686c0.062-0.25,0.125-0.499,0.188-0.686c0.062-0.188,0.187-0.375,0.312-0.624
	C2.214,11.79,2.339,11.603,2.526,11.478v-0.062V11.478z M5.333,2.994C5.77,2.87,6.269,2.87,6.706,3.057S7.517,3.431,7.891,3.68
	c0.312,0.25,0.624,0.562,0.811,0.998c0.187,0.437,0.312,0.874,0.312,1.31c0,0.562-0.125,0.998-0.312,1.435
	C8.515,7.86,8.203,8.171,7.891,8.483C7.517,8.795,7.08,9.045,6.643,9.169C6.207,9.294,5.708,9.294,5.271,9.232
	s-0.874-0.25-1.185-0.499c-0.375-0.25-0.687-0.562-0.874-0.998C2.963,7.361,2.776,6.986,2.713,6.55S2.651,5.676,2.776,5.24
	C2.838,4.99,2.963,4.741,3.15,4.429C3.337,4.117,3.524,3.93,3.774,3.743C3.961,3.556,4.21,3.431,4.522,3.244
	C4.772,3.057,5.021,2.994,5.333,2.994V2.932V2.994z M12.631,2.059v0.062c0.562-0.188,1.186-0.25,1.747-0.062
	C14.939,2.246,15.501,2.495,16,2.807c0.437,0.312,0.811,0.749,1.123,1.31c0.249,0.561,0.374,1.185,0.312,1.747
	c0.062,0.499,0,0.936-0.187,1.31c-0.188,0.437-0.375,0.811-0.687,1.123c-0.312,0.374-0.624,0.686-0.998,0.873
	c-0.375,0.188-0.811,0.375-1.248,0.499c-0.375,0.062-0.749,0.062-1.186,0c-0.437,0-0.811-0.125-1.185-0.312
	c-0.374-0.188-0.686-0.437-0.998-0.687s-0.562-0.561-0.749-0.998c-0.062-0.125-0.187-0.312-0.25-0.499
	C9.887,6.986,9.825,6.737,9.825,6.55C9.762,6.363,9.762,6.175,9.762,5.926C9.7,5.739,9.7,5.552,9.762,5.365
	c0.062-0.437,0.125-0.811,0.312-1.123c0.187-0.312,0.374-0.686,0.624-0.998s0.562-0.562,0.874-0.749
	C11.883,2.308,12.257,2.183,12.631,2.059v0.062V2.059z M21.988,0.125v0.062C22.425,0.062,22.924,0,23.36,0
	c0.437,0.062,0.936,0.125,1.373,0.187c0.437,0.125,0.811,0.312,1.185,0.562s0.749,0.499,1.061,0.749
	c0.437,0.437,0.749,0.874,0.998,1.31c0.25,0.499,0.437,0.998,0.499,1.56c0.062,0.561,0.125,1.06,0.062,1.559
	c-0.062,0.562-0.188,1.061-0.437,1.622c-0.188,0.312-0.374,0.686-0.624,0.998c-0.249,0.374-0.562,0.686-0.873,0.873
	c-0.312,0.25-0.687,0.499-1.061,0.687c-0.374,0.187-0.749,0.312-1.123,0.374c-0.312,0.062-0.562,0.125-0.811,0.125
	c-0.312,0-0.562,0-0.812,0c-0.249,0-0.499-0.062-0.748-0.125c-0.312-0.062-0.562-0.125-0.811-0.187
	c-0.375-0.187-0.749-0.437-1.061-0.686c-0.375-0.25-0.687-0.562-0.998-0.936c-0.312-0.312-0.499-0.686-0.687-1.06
	c-0.188-0.375-0.374-0.811-0.437-1.31c0-0.125,0-0.312,0-0.499c-0.062-0.187-0.062-0.375-0.062-0.562c0-0.125,0-0.312,0.062-0.499
	c0-0.187,0-0.374,0-0.499c0.125-0.562,0.312-0.998,0.562-1.435c0.249-0.437,0.562-0.811,0.873-1.185
	c0.312-0.375,0.749-0.687,1.186-0.936C21.115,0.499,21.552,0.312,21.988,0.125v0.062V0.125z"/>
</svg>
