<?xml version="1.0" encoding="utf-8"?>
<!-- Generator: Adobe Illustrator 16.0.0, SVG Export Plug-In . SVG Version: 6.00 Build 0)  -->
<!DOCTYPE svg PUBLIC "-//W3C//DTD SVG 1.1//EN" "http://www.w3.org/Graphics/SVG/1.1/DTD/svg11.dtd">
<svg version="1.1" id="Layer_1" xmlns="http://www.w3.org/2000/svg" xmlns:xlink="http://www.w3.org/1999/xlink" x="0px" y="0px"
	 width="32px" height="32px" viewBox="0 0 32 32" enable-background="new 0 0 32 32" xml:space="preserve">
<path d="M13.193,5.801v0.062l4.055-0.062c0.499,0.062,0.936,0.125,1.372,0.312c0.374,0.187,0.686,0.499,0.998,0.873
	c0.249,0.375,0.437,0.811,0.499,1.248s0.062,0.998-0.125,1.56c-0.125,0.499-0.312,0.998-0.624,1.435
	c-0.312,0.499-0.686,0.936-1.122,1.248c-0.438,0.312-0.874,0.624-1.373,0.811c-0.561,0.25-1.06,0.374-1.559,0.312l-3.868,0.062
	L13.193,5.801z M27.478,4.055v0.062c0.188,0.062,0.437,0.187,0.624,0.312c0.187,0.125,0.312,0.25,0.499,0.375
	c0.187,0.125,0.312,0.25,0.499,0.437c0.125,0.187,0.249,0.375,0.437,0.499c0.249,0.375,0.437,0.749,0.624,1.185
	c0.187,0.437,0.312,0.874,0.374,1.373s0.125,0.998,0.125,1.56c-0.062,0.561-0.125,1.123-0.25,1.747
	c-0.125,0.561-0.249,1.185-0.437,1.747c-0.188,0.561-0.437,1.123-0.687,1.622c-0.312,0.499-0.623,0.998-0.936,1.435
	c-0.312,0.437-0.686,0.873-1.122,1.186c-0.062,0.125-0.125,0.187-0.188,0.249s-0.188,0.188-0.25,0.25
	c-0.062,0.062-0.187,0.125-0.249,0.187c-0.062,0.062-0.125,0.125-0.188,0.25c-0.437,0.312-0.936,0.562-1.372,0.811
	c-0.499,0.312-0.998,0.499-1.497,0.624c-0.562,0.188-1.061,0.312-1.622,0.437s-1.185,0.188-1.746,0.125l-7.486,0.062l-1.996,9.356
	l-4.117,0.062l0.312-1.497l1.435,0.062l1.996-9.544l5.864,0.062c1.435-0.062,2.744-0.25,4.055-0.687
	c1.247-0.374,2.37-0.998,3.431-1.809c0.998-0.811,1.871-1.747,2.558-2.932c0.686-1.123,1.247-2.433,1.56-3.93
	c0.312-1.684,0.312-3.119,0-4.366c-0.312-1.186-0.874-2.184-1.622-2.994c-0.812-0.749-1.685-1.31-2.745-1.747
	C22.3,0.187,21.302,0,20.242,0.062L6.269,0L0.031,28.569l4.741-0.062L4.023,32l8.234-0.062l1.996-9.356l5.864-0.062
	c1.435,0.062,2.744-0.188,4.055-0.624c1.247-0.437,2.37-1.061,3.431-1.871c0.998-0.749,1.871-1.747,2.558-2.932
	c0.686-1.186,1.247-2.433,1.56-3.868c0.249-1.31,0.312-2.433,0.187-3.368c-0.125-0.936-0.374-1.809-0.811-2.62
	c-0.437-0.749-0.936-1.372-1.56-1.871S28.227,4.429,27.478,4.055z"/>
</svg>
