<?xml version="1.0" encoding="utf-8"?>
<!-- Generator: Adobe Illustrator 16.0.0, SVG Export Plug-In . SVG Version: 6.00 Build 0)  -->
<!DOCTYPE svg PUBLIC "-//W3C//DTD SVG 1.1//EN" "http://www.w3.org/Graphics/SVG/1.1/DTD/svg11.dtd">
<svg version="1.1" id="Layer_1" xmlns="http://www.w3.org/2000/svg" xmlns:xlink="http://www.w3.org/1999/xlink" x="0px" y="0px"
	 width="32px" height="32px" viewBox="0 0 32 32" enable-background="new 0 0 32 32" xml:space="preserve">
<path d="M13.798,21.188c-0.187,1.062-0.437,2.125-0.687,3.188c-0.25,1.062-0.562,2.062-0.938,3
	c-0.375,0.938-0.812,1.812-1.312,2.625c-0.562,0.812-1.188,1.437-2,2c-0.188-1.688-0.25-3.25-0.125-4.75
	c0.125-1.437,0.312-2.875,0.625-4.25c0.312-1.375,0.625-2.75,1-4.062s0.688-2.562,1-3.875c-0.438-0.812-0.688-1.687-0.688-2.749
	c0-1.062,0.188-2,0.562-2.875s0.938-1.562,1.688-2.062c0.688-0.438,1.562-0.5,2.5-0.125c1.187,0.5,1.687,1.375,1.499,2.625
	c-0.25,1.25-0.562,2.562-1,3.937c-0.438,1.438-0.688,2.687-0.749,3.875c-0.063,1.188,0.625,1.938,2.124,2.25
	c1.562,0.312,2.874-0.062,3.937-1.25c1.062-1.125,1.812-2.5,2.25-4.187c0.438-1.688,0.625-3.375,0.438-5.187
	c-0.188-1.75-0.813-3.125-1.751-4.062c-1.374-1.438-2.999-2.188-4.812-2.312c-1.875-0.125-3.624,0.25-5.187,1.062
	c-1.625,0.875-2.938,2.125-3.938,3.687c-1,1.625-1.312,3.438-1,5.5c0.062,0.5,0.25,0.938,0.5,1.25
	c0.25,0.375,0.438,0.75,0.625,1.125s0.25,0.812,0.312,1.25c0,0.438-0.188,1-0.625,1.688c-0.875-0.188-1.625-0.562-2.188-1
	c-0.625-0.438-1.125-0.938-1.437-1.562c-0.312-0.625-0.562-1.375-0.688-2.188s-0.188-1.687-0.188-2.625
	c0.063-1.562,0.438-2.938,1.062-4.25c0.625-1.25,1.438-2.375,2.5-3.312c1-0.938,2.125-1.75,3.438-2.375
	c1.25-0.562,2.562-0.937,3.874-1.062c1.688-0.188,3.312-0.188,4.874,0.125c1.562,0.312,3,0.875,4.25,1.625
	c1.25,0.75,2.312,1.688,3.188,2.875c0.812,1.188,1.375,2.562,1.562,4.125c0.25,1.812,0.187,3.562-0.126,5.312
	c-0.374,1.812-0.999,3.375-1.874,4.75c-0.938,1.375-2.062,2.438-3.437,3.25c-1.376,0.812-2.938,1.188-4.75,1
	c-0.5-0.062-0.938-0.125-1.312-0.25c-0.375-0.125-0.688-0.313-0.999-0.5c-0.313-0.188-0.625-0.375-0.938-0.625
	C14.548,21.626,14.173,21.376,13.798,21.188z"/>
</svg>
