<?xml version="1.0" encoding="utf-8"?>
<!-- Generator: Adobe Illustrator 16.0.0, SVG Export Plug-In . SVG Version: 6.00 Build 0)  -->
<!DOCTYPE svg PUBLIC "-//W3C//DTD SVG 1.1//EN" "http://www.w3.org/Graphics/SVG/1.1/DTD/svg11.dtd">
<svg version="1.1" id="Layer_1" xmlns="http://www.w3.org/2000/svg" xmlns:xlink="http://www.w3.org/1999/xlink" x="0px" y="0px"
	 width="32px" height="32px" viewBox="0 0 32 32" enable-background="new 0 0 32 32" xml:space="preserve">
<path d="M24.924,12.994h0.125c0.939,0,1.879,0.188,2.692,0.563c0.814,0.376,1.566,0.877,2.255,1.503
	c0.626,0.626,1.127,1.378,1.503,2.192C31.812,18.129,32,19.068,32,20.008s-0.188,1.879-0.563,2.692
	c-0.376,0.877-0.877,1.629-1.503,2.255c-0.689,0.626-1.44,1.127-2.255,1.503c-0.813,0.376-1.753,0.563-2.692,0.563
	c-1.002,0-1.941-0.188-2.756-0.563c-0.813-0.376-1.565-0.877-2.191-1.503c-0.688-0.626-1.189-1.378-1.503-2.255
	c-0.376-0.813-0.563-1.753-0.563-2.692l-0.062-1.002c0-1.941,0.376-3.757,1.127-5.448c0.688-1.691,1.69-3.194,3.006-4.509
	c1.253-1.252,2.756-2.254,4.446-3.006c1.69-0.689,3.507-1.064,5.448-1.064v4.008c-0.689,0-1.315,0.062-1.941,0.188
	c-0.688,0.125-1.315,0.313-1.879,0.563c-0.626,0.25-1.189,0.563-1.753,0.939c-0.563,0.375-1.064,0.814-1.503,1.252
	c-0.062,0.062-0.188,0.188-0.251,0.25c-0.062,0.125-0.188,0.25-0.25,0.313s-0.188,0.188-0.251,0.25
	c-0.062,0.125-0.188,0.25-0.25,0.313c0.062,0,0.188,0,0.25,0s0.188,0,0.313-0.062c0.062,0,0.188,0,0.25,0
	S24.861,12.994,24.924,12.994z M7.014,12.994h0.125c0.939,0,1.878,0.188,2.692,0.563c0.814,0.376,1.566,0.877,2.254,1.503
	c0.626,0.626,1.127,1.378,1.503,2.192c0.313,0.876,0.501,1.815,0.501,2.755s-0.188,1.879-0.563,2.692
	c-0.375,0.877-0.876,1.629-1.503,2.255c-0.689,0.626-1.44,1.127-2.254,1.503s-1.753,0.563-2.693,0.563
	c-1.002,0-1.941-0.188-2.755-0.563c-0.814-0.376-1.565-0.877-2.191-1.503c-0.689-0.626-1.19-1.378-1.503-2.255
	c-0.376-0.813-0.564-1.753-0.564-2.692L0,19.006c0-1.941,0.376-3.757,1.127-5.448c0.688-1.691,1.69-3.194,3.006-4.509
	c1.252-1.252,2.755-2.254,4.446-3.006c1.691-0.689,3.507-1.064,5.448-1.064v4.008c-0.689,0-1.315,0.062-1.941,0.188
	c-0.688,0.125-1.315,0.313-1.878,0.563c-0.626,0.25-1.19,0.563-1.753,0.939c-0.563,0.375-1.064,0.814-1.503,1.252
	c-0.062,0.062-0.188,0.188-0.25,0.25c-0.062,0.125-0.188,0.25-0.25,0.313s-0.188,0.188-0.25,0.25
	c-0.062,0.125-0.188,0.25-0.25,0.313c0.062,0,0.188,0,0.25,0s0.188,0,0.313-0.062c0.062,0,0.188,0,0.25,0S6.951,12.994,7.014,12.994
	z"/>
</svg>
