<?xml version="1.0" encoding="utf-8"?>
<!-- Generator: Adobe Illustrator 16.0.0, SVG Export Plug-In . SVG Version: 6.00 Build 0)  -->
<!DOCTYPE svg PUBLIC "-//W3C//DTD SVG 1.1//EN" "http://www.w3.org/Graphics/SVG/1.1/DTD/svg11.dtd">
<svg version="1.1" id="Layer_1" xmlns="http://www.w3.org/2000/svg" xmlns:xlink="http://www.w3.org/1999/xlink" x="0px" y="0px"
	 width="32px" height="32px" viewBox="0 0 32 32" enable-background="new 0 0 32 32" xml:space="preserve">
<path d="M28.75,15.875c-0.188-0.25-0.312-0.5-0.5-0.75s-0.438-0.5-0.625-0.75c-0.188-0.188-0.438-0.438-0.688-0.625
	s-0.5-0.438-0.75-0.625c0.062-0.188,0.188-0.312,0.312-0.438s0.25-0.25,0.438-0.375c0.125-0.062,0.312-0.188,0.5-0.25
	S27.812,12,28,12c0.312,0,0.562,0.062,0.812,0.125c0.188,0.125,0.438,0.25,0.625,0.438S29.75,13,29.875,13.188
	C29.938,13.438,30,13.688,30,14c0,0.188,0,0.375-0.062,0.562s-0.188,0.375-0.25,0.562c-0.125,0.188-0.25,0.312-0.438,0.438
	S28.938,15.812,28.75,15.875z M16,27.625c-1.625,0-3.125-0.188-4.5-0.625c-1.438-0.375-2.625-0.938-3.688-1.625
	s-1.938-1.5-2.5-2.438C4.688,22,4.375,21.062,4.375,20s0.312-2.062,0.938-3c0.562-0.938,1.438-1.75,2.5-2.438
	s2.25-1.188,3.688-1.625c1.375-0.375,2.875-0.562,4.5-0.562s3.125,0.188,4.562,0.562c1.375,0.438,2.625,0.938,3.688,1.625
	s1.875,1.5,2.5,2.438c0.562,0.938,0.875,1.938,0.875,3s-0.312,2-0.875,2.938c-0.625,0.938-1.438,1.75-2.5,2.438
	s-2.312,1.25-3.688,1.625C19.125,27.438,17.625,27.625,16,27.625z M2,14c0-0.312,0.062-0.562,0.188-0.812
	C2.25,13,2.438,12.75,2.625,12.562S3,12.25,3.25,12.125C3.438,12.062,3.688,12,4,12c0.188,0,0.438,0,0.625,0.062
	s0.312,0.188,0.5,0.25c0.125,0.125,0.25,0.25,0.375,0.375s0.25,0.25,0.312,0.438c-0.25,0.188-0.5,0.438-0.75,0.625
	s-0.5,0.438-0.688,0.625c-0.188,0.25-0.375,0.5-0.562,0.75s-0.375,0.5-0.562,0.75c-0.188-0.062-0.312-0.188-0.5-0.312
	s-0.312-0.25-0.375-0.438c-0.125-0.188-0.188-0.375-0.25-0.562S2,14.188,2,14z M27,3.875c0.188,0,0.312,0,0.438,0.062
	s0.25,0.188,0.375,0.25c0.062,0.125,0.188,0.25,0.25,0.375S28.125,4.812,28.125,5s0,0.312-0.062,0.438s-0.188,0.25-0.25,0.312
	c-0.125,0.125-0.25,0.188-0.375,0.25S27.188,6.125,27,6.125S26.688,6.062,26.562,6s-0.25-0.125-0.312-0.25
	C26.125,5.688,26.062,5.562,26,5.438S25.875,5.188,25.875,5S25.938,4.688,26,4.562s0.125-0.25,0.25-0.375
	c0.062-0.062,0.188-0.188,0.312-0.25S26.812,3.875,27,3.875z M32,14c0-0.562-0.125-1.062-0.312-1.562s-0.5-0.938-0.812-1.312
	c-0.375-0.312-0.812-0.625-1.312-0.812S28.562,10,28,10c-0.375,0-0.75,0.062-1.062,0.125c-0.375,0.125-0.688,0.25-1,0.438
	s-0.562,0.375-0.812,0.625c-0.25,0.312-0.438,0.562-0.625,0.875C24,11.75,23.438,11.5,22.875,11.25
	c-0.562-0.188-1.188-0.375-1.75-0.562c-0.625-0.188-1.25-0.312-1.875-0.438c-0.688-0.062-1.375-0.125-2.062-0.188l2.438-5.375
	L24.188,6c0.062,0.312,0.25,0.562,0.438,0.812S25,7.25,25.25,7.438s0.5,0.312,0.812,0.375C26.375,7.938,26.688,8,27,8
	c0.438,0,0.812-0.062,1.188-0.25c0.312-0.188,0.625-0.375,0.938-0.688c0.25-0.25,0.438-0.562,0.625-0.938
	C29.938,5.812,30,5.438,30,5s-0.062-0.812-0.25-1.188c-0.188-0.312-0.375-0.625-0.625-0.938c-0.312-0.25-0.625-0.438-0.938-0.625
	C27.812,2.062,27.438,2,27,2c-0.312,0-0.562,0.062-0.812,0.125c-0.312,0.062-0.562,0.188-0.75,0.312s-0.375,0.312-0.562,0.5
	s-0.375,0.438-0.5,0.625L19.25,2.125C19.125,2.062,19,2.062,18.875,2.062c-0.188,0-0.312,0-0.438,0.062s-0.25,0.188-0.312,0.25
	C18,2.5,17.938,2.625,17.875,2.75l-3.25,7.312c-0.688,0.062-1.312,0.125-1.938,0.188c-0.688,0.125-1.312,0.25-1.875,0.438
	s-1.125,0.375-1.688,0.562C8.562,11.5,8,11.75,7.5,12.062C7.312,11.75,7.125,11.5,6.875,11.188c-0.25-0.25-0.5-0.438-0.812-0.625
	s-0.625-0.312-0.938-0.438C4.75,10.062,4.375,10,4,10c-0.562,0-1.062,0.125-1.562,0.312s-0.938,0.5-1.25,0.812
	C0.812,11.5,0.5,11.938,0.312,12.438S0,13.438,0,14c0,0.438,0.062,0.812,0.188,1.188s0.312,0.688,0.5,1s0.438,0.625,0.75,0.875
	s0.625,0.438,0.938,0.625C2.312,17.875,2.312,18,2.25,18.188s-0.125,0.438-0.125,0.625C2.062,19,2.062,19.188,2.062,19.375
	C2,19.562,2,19.812,2,20c0,1.375,0.375,2.688,1.125,3.875c0.688,1.188,1.688,2.25,3,3.188c1.25,0.938,2.75,1.625,4.438,2.125
	C12.25,29.75,14.062,30,16,30s3.75-0.25,5.438-0.812c1.688-0.5,3.188-1.188,4.5-2.125c1.25-0.938,2.25-2,3-3.188
	C29.625,22.688,30,21.375,30,20c0-0.188,0-0.438,0-0.625c-0.062-0.188-0.062-0.375-0.062-0.562
	c-0.062-0.188-0.062-0.438-0.125-0.625s-0.125-0.312-0.188-0.5c0.312-0.188,0.625-0.375,0.938-0.625s0.562-0.562,0.75-0.875
	s0.375-0.625,0.5-1S32,14.438,32,14z M20.125,22.25c0.125-0.062,0.25-0.125,0.438-0.188C20.688,22,20.812,22,21,22
	c0.125,0.062,0.25,0.062,0.438,0.125c0.125,0.062,0.25,0.188,0.312,0.375c0.125,0.125,0.188,0.25,0.25,0.375
	c0.062,0.188,0.062,0.312,0.062,0.438C22,23.5,21.938,23.625,21.875,23.75c-0.062,0.188-0.188,0.312-0.312,0.375
	c-0.375,0.312-0.75,0.562-1.188,0.75c-0.438,0.25-0.938,0.438-1.375,0.625c-0.5,0.188-1,0.312-1.5,0.375S16.5,26,16,26
	s-1-0.062-1.5-0.125s-1-0.188-1.438-0.375c-0.5-0.188-0.938-0.375-1.375-0.625c-0.438-0.188-0.875-0.438-1.25-0.75
	c-0.125-0.062-0.25-0.188-0.312-0.375C10.062,23.625,10,23.5,10,23.312c-0.062-0.125-0.062-0.25,0-0.438
	c0.062-0.125,0.125-0.25,0.25-0.375c0.062-0.188,0.188-0.312,0.375-0.375c0.125-0.062,0.25-0.062,0.438-0.125
	c0.125,0,0.25,0,0.438,0.062c0.125,0.062,0.25,0.125,0.375,0.188c0.188,0.188,0.5,0.312,0.812,0.5s0.625,0.312,1,0.438
	c0.312,0.125,0.688,0.25,1.125,0.312c0.375,0.062,0.75,0.125,1.188,0.125s0.812-0.062,1.25-0.125
	c0.375-0.062,0.75-0.188,1.125-0.312c0.312-0.125,0.688-0.25,1-0.438S19.938,22.438,20.125,22.25z M20,18
	c0-0.312,0.062-0.562,0.188-0.812c0.062-0.188,0.25-0.438,0.438-0.625S21,16.25,21.25,16.125C21.438,16.062,21.688,16,22,16
	s0.562,0.062,0.812,0.125c0.188,0.125,0.438,0.25,0.625,0.438S23.75,17,23.875,17.188C23.938,17.438,24,17.688,24,18
	s-0.062,0.562-0.125,0.75c-0.125,0.25-0.25,0.438-0.438,0.625S23,19.75,22.812,19.812C22.562,19.938,22.312,20,22,20
	s-0.562-0.062-0.75-0.188c-0.25-0.062-0.438-0.25-0.625-0.438S20.25,19,20.188,18.75C20.062,18.562,20,18.312,20,18z M8,18
	c0-0.312,0.062-0.562,0.188-0.812C8.25,17,8.438,16.75,8.625,16.562S9,16.25,9.25,16.125C9.438,16.062,9.688,16,10,16
	s0.562,0.062,0.812,0.125c0.188,0.125,0.438,0.25,0.625,0.438S11.75,17,11.875,17.188C11.938,17.438,12,17.688,12,18
	s-0.062,0.562-0.125,0.75c-0.125,0.25-0.25,0.438-0.438,0.625S11,19.75,10.812,19.812C10.562,19.938,10.312,20,10,20
	s-0.562-0.062-0.75-0.188C9,19.75,8.812,19.562,8.625,19.375S8.25,19,8.188,18.75C8.062,18.562,8,18.312,8,18z"/>
</svg>
