<?xml version="1.0" encoding="utf-8"?>
<!-- Generator: Adobe Illustrator 16.0.0, SVG Export Plug-In . SVG Version: 6.00 Build 0)  -->
<!DOCTYPE svg PUBLIC "-//W3C//DTD SVG 1.1//EN" "http://www.w3.org/Graphics/SVG/1.1/DTD/svg11.dtd">
<svg version="1.1" id="Layer_1" xmlns="http://www.w3.org/2000/svg" xmlns:xlink="http://www.w3.org/1999/xlink" x="0px" y="0px"
	 width="32px" height="32px" viewBox="0 0 32 32" enable-background="new 0 0 32 32" xml:space="preserve">
<g>
	<path d="M10.927,24.316c0-0.212,0.07-0.352,0.209-0.492l7.86-7.859l-7.86-7.859c-0.139-0.142-0.209-0.282-0.209-0.491
		c0-0.141,0.07-0.281,0.209-0.422l0.984-1.051C12.259,6.07,12.399,6,12.609,6c0.141,0,0.281,0.07,0.42,0.142l9.334,9.403
		c0.141,0.07,0.211,0.211,0.211,0.421s-0.07,0.351-0.211,0.491l-9.332,9.333C12.891,25.931,12.75,26,12.609,26
		c-0.211,0-0.351-0.069-0.489-0.21l-0.984-0.983C10.997,24.667,10.927,24.526,10.927,24.316z"/>
	<path d="M9.426,24.316c0-0.212,0.07-0.352,0.209-0.492l7.861-7.859L9.635,8.105C9.496,7.964,9.426,7.823,9.426,7.614
		c0-0.141,0.07-0.281,0.209-0.422l0.984-1.051C10.758,6.07,10.898,6,11.109,6c0.141,0,0.281,0.07,0.42,0.142l9.334,9.403
		c0.141,0.07,0.211,0.211,0.211,0.421s-0.07,0.351-0.211,0.491l-9.332,9.333C11.391,25.931,11.25,26,11.109,26
		c-0.211,0-0.352-0.069-0.49-0.21l-0.984-0.983C9.496,24.667,9.426,24.526,9.426,24.316z"/>
</g>
</svg>
