<?xml version="1.0" encoding="utf-8"?>
<!-- Generator: Adobe Illustrator 16.0.0, SVG Export Plug-In . SVG Version: 6.00 Build 0)  -->
<!DOCTYPE svg PUBLIC "-//W3C//DTD SVG 1.1//EN" "http://www.w3.org/Graphics/SVG/1.1/DTD/svg11.dtd">
<svg version="1.1" id="Layer_1" xmlns="http://www.w3.org/2000/svg" xmlns:xlink="http://www.w3.org/1999/xlink" x="0px" y="0px"
	 width="32px" height="32px" viewBox="0 0 32 32" enable-background="new 0 0 32 32" xml:space="preserve">
<path d="M0,0v6.125c3.562,0,6.938,0.688,10.062,2c3.125,1.375,5.875,3.25,8.188,5.562c2.312,2.375,4.188,5.125,5.562,8.25
	s2.062,6.5,2.062,10.062H32c0-4.438-0.812-8.562-2.5-12.438s-4-7.25-6.875-10.188C19.688,6.5,16.312,4.188,12.438,2.5S4.438,0,0,0z
	 M0,10.875V17c1,0,2,0.062,2.938,0.25s1.875,0.5,2.812,0.875C6.625,18.5,7.5,18.938,8.312,19.5s1.562,1.188,2.25,1.875
	s1.312,1.438,1.875,2.25s1,1.688,1.375,2.625s0.688,1.875,0.875,2.812S14.938,31,14.938,32h6.188c0-2.938-0.562-5.688-1.625-8.25
	c-1.125-2.562-2.625-4.75-4.562-6.688S10.812,13.625,8.25,12.5C5.688,11.438,2.938,10.875,0,10.875z M4.25,23.438
	c-0.562,0-1.125,0.125-1.625,0.312c-0.562,0.25-1,0.562-1.375,0.938c-0.375,0.438-0.688,0.875-0.875,1.375
	C0.125,26.562,0,27.125,0,27.75c0,0.562,0.125,1.125,0.375,1.625c0.188,0.5,0.5,0.938,0.875,1.312
	c0.375,0.438,0.812,0.75,1.375,0.938c0.5,0.188,1.062,0.312,1.625,0.312s1.125-0.125,1.688-0.312c0.5-0.188,0.938-0.5,1.375-0.938
	C7.688,30.312,8,29.875,8.188,29.375S8.5,28.312,8.5,27.75c0-0.625-0.125-1.188-0.312-1.688s-0.5-0.938-0.875-1.375
	C6.875,24.312,6.438,24,5.938,23.75C5.375,23.562,4.812,23.438,4.25,23.438z"/>
</svg>
