<?xml version="1.0" encoding="utf-8"?>
<!-- Generator: Adobe Illustrator 16.0.0, SVG Export Plug-In . SVG Version: 6.00 Build 0)  -->
<!DOCTYPE svg PUBLIC "-//W3C//DTD SVG 1.1//EN" "http://www.w3.org/Graphics/SVG/1.1/DTD/svg11.dtd">
<svg version="1.1" id="Layer_1" xmlns="http://www.w3.org/2000/svg" xmlns:xlink="http://www.w3.org/1999/xlink" x="0px" y="0px"
	 width="32px" height="32px" viewBox="0 0 32 32" enable-background="new 0 0 32 32" xml:space="preserve">
<path d="M17.262,26.866h0.062c-1.187,0.062-2.248,0-3.123-0.062c-0.874-0.062-1.686-0.25-2.373-0.5
	c-0.687-0.249-1.312-0.562-1.811-0.937c-0.562-0.312-1.062-0.749-1.624-1.187c-0.5-0.562-0.875-1.062-1.062-1.623
	c-0.188-0.5-0.25-1-0.125-1.437c0.062-0.438,0.25-0.75,0.562-1.062c0.312-0.312,0.687-0.438,1.187-0.5
	c0.437-0.062,0.812,0.062,1.187,0.25c0.375,0.25,0.687,0.499,0.999,0.812c0.312,0.312,0.562,0.562,0.875,0.874
	c0.312,0.312,0.562,0.562,0.75,0.75c0.312,0.125,0.687,0.312,1.249,0.499c0.5,0.188,1.062,0.375,1.748,0.438
	c0.625,0.062,1.249,0.062,1.937-0.125c0.624-0.188,1.187-0.499,1.748-1.062c0.438-0.624,0.625-1.187,0.562-1.624
	c-0.062-0.437-0.375-0.874-0.812-1.187c-0.5-0.312-1.062-0.624-1.749-0.812s-1.374-0.375-2.061-0.438
	c-0.937-0.125-1.874-0.374-2.873-0.687s-1.874-0.75-2.623-1.312c-0.812-0.5-1.436-1.124-1.936-1.874s-0.687-1.624-0.5-2.623
	c0.062-1,0.25-1.874,0.687-2.623c0.438-0.75,0.937-1.374,1.499-1.874s1.187-0.875,1.999-1.187c0.749-0.312,1.499-0.5,2.186-0.562
	c1.062-0.062,1.998-0.125,2.811-0.062c0.812,0.062,1.623,0.25,2.311,0.437c0.687,0.188,1.374,0.5,1.936,0.812
	c0.562,0.312,1.124,0.75,1.687,1.187c0.562,0.5,0.937,0.999,1.124,1.499c0.188,0.562,0.25,1,0.125,1.437s-0.312,0.75-0.625,1.062
	c-0.312,0.312-0.687,0.438-1.124,0.5c-0.312,0.062-0.687-0.125-1.124-0.5c-0.438-0.312-0.937-0.687-1.374-1.124
	c-0.499-0.437-1.062-0.812-1.748-1.187c-0.688-0.375-1.374-0.562-2.187-0.625c-0.936,0-1.686,0.188-2.31,0.562
	c-0.687,0.375-1.124,0.812-1.374,1.312c-0.25,0.562-0.188,1.062,0.125,1.562c0.312,0.562,0.937,0.937,1.936,1.187
	c1.124,0.25,2.186,0.5,3.247,0.687c1.062,0.25,2.061,0.562,2.998,0.875c0.937,0.375,1.811,0.875,2.498,1.437
	c0.687,0.562,1.311,1.374,1.748,2.373c0.375,0.937,0.438,1.936,0.188,2.872c-0.25,0.938-0.749,1.812-1.437,2.561
	c-0.749,0.812-1.623,1.437-2.623,1.937C19.572,26.491,18.448,26.804,17.262,26.866z M30.438,18.061
	c0.062-0.188,0.062-0.312,0.062-0.499s0-0.312,0.062-0.5c0.062-0.187,0.062-0.312,0.062-0.499c-0.062-0.188-0.062-0.312,0-0.5
	c-0.062-1.999-0.438-3.872-1.187-5.683c-0.749-1.749-1.811-3.31-3.122-4.621c-1.374-1.312-2.936-2.373-4.684-3.185
	c-1.812-0.75-3.685-1.124-5.746-1.124c-0.188,0-0.374,0-0.562,0c-0.25,0.062-0.438,0.062-0.625,0.062
	c-0.188,0.062-0.375,0.062-0.562,0.062c-0.187,0.062-0.375,0.062-0.562,0.062c-0.375-0.188-0.749-0.375-1.062-0.562
	c-0.375-0.188-0.75-0.312-1.187-0.438c-0.437-0.125-0.874-0.25-1.249-0.312C9.643,0.263,9.206,0.263,8.706,0.263
	c-1.187,0-2.311,0.25-3.372,0.687S3.335,2.011,2.586,2.823C1.774,3.635,1.15,4.509,0.713,5.571c-0.5,1.062-0.75,2.249-0.687,3.435
	c-0.062,0.437,0,0.874,0.062,1.311c0.062,0.438,0.187,0.812,0.312,1.187c0.062,0.438,0.25,0.812,0.437,1.187
	c0.188,0.375,0.375,0.75,0.562,1.062c0,0.187,0,0.375-0.062,0.562c-0.062,0.187-0.062,0.375-0.062,0.562s0,0.437,0,0.625
	c-0.062,0.188-0.062,0.375,0,0.562c-0.062,2.061,0.312,3.935,1.124,5.683c0.812,1.812,1.811,3.31,3.123,4.621
	s2.873,2.373,4.684,3.123c1.811,0.812,3.685,1.187,5.683,1.187c0.25,0,0.5,0,0.688,0s0.437,0,0.687-0.062c0.25,0,0.5,0,0.688-0.062
	c0.187-0.062,0.374-0.062,0.687-0.125c0.312,0.188,0.624,0.375,0.999,0.562c0.375,0.187,0.75,0.312,1.124,0.374
	c0.375,0.125,0.812,0.188,1.249,0.25c0.438,0.062,0.812,0.125,1.187,0.125c1.249,0,2.373-0.25,3.435-0.687
	c1.062-0.438,1.999-1.062,2.811-1.874s1.437-1.748,1.873-2.811c0.438-1.062,0.625-2.186,0.688-3.372
	c-0.062-0.437-0.062-0.937-0.125-1.374c-0.062-0.437-0.125-0.812-0.312-1.249c-0.188-0.437-0.312-0.812-0.499-1.249
	C30.876,18.748,30.688,18.373,30.438,18.061z"/>
</svg>
