<?xml version="1.0" encoding="utf-8"?>
<!-- Generator: Adobe Illustrator 16.0.0, SVG Export Plug-In . SVG Version: 6.00 Build 0)  -->
<!DOCTYPE svg PUBLIC "-//W3C//DTD SVG 1.1//EN" "http://www.w3.org/Graphics/SVG/1.1/DTD/svg11.dtd">
<svg version="1.1" id="Layer_1" xmlns="http://www.w3.org/2000/svg" xmlns:xlink="http://www.w3.org/1999/xlink" x="0px" y="0px"
	 width="32px" height="32px" viewBox="0 0 32 32" enable-background="new 0 0 32 32" xml:space="preserve">
<path d="M27.168,7.703c0,0.42-0.14,0.77-0.42,1.12c-0.35,0.28-0.7,0.42-1.12,0.42c-0.49,0-0.84-0.14-1.19-0.42
	c-0.28-0.35-0.42-0.7-0.42-1.12c0-0.49,0.14-0.84,0.42-1.19c0.351-0.28,0.7-0.42,1.19-0.42c0.42,0,0.771,0.14,1.12,0.42
	C27.028,6.862,27.168,7.212,27.168,7.703z M31.37,16.665c0,0.49-0.21,0.98-0.561,1.331c-0.35,0.35-0.84,0.56-1.4,0.56
	c-0.49,0-0.98-0.21-1.33-0.56c-0.351-0.351-0.561-0.841-0.561-1.331c0-0.56,0.21-1.05,0.561-1.4c0.35-0.35,0.84-0.56,1.33-0.56
	c0.561,0,1.051,0.21,1.4,0.56C31.16,15.615,31.37,16.105,31.37,16.665z M20.446,3.851c0,1.05-0.35,1.961-1.12,2.731
	c-0.771,0.771-1.61,1.121-2.661,1.121s-1.961-0.35-2.73-1.121c-0.771-0.77-1.121-1.681-1.121-2.731s0.351-1.96,1.121-2.73
	C14.704,0.35,15.614,0,16.665,0s1.891,0.35,2.661,1.121C20.097,1.891,20.446,2.801,20.446,3.851z M11.203,7.703
	c0,0.91-0.35,1.75-1.05,2.451s-1.541,1.05-2.451,1.05c-0.98,0-1.82-0.35-2.521-1.05S4.131,8.613,4.131,7.703
	c0-0.98,0.351-1.821,1.051-2.521s1.54-1.05,2.521-1.05c0.91,0,1.751,0.35,2.451,1.05S11.203,6.722,11.203,7.703z M27.869,25.628
	c0,0.63-0.211,1.12-0.701,1.54c-0.42,0.49-0.91,0.701-1.54,0.701s-1.19-0.211-1.61-0.701c-0.42-0.42-0.63-0.91-0.63-1.54
	s0.21-1.19,0.63-1.61s0.98-0.63,1.61-0.63s1.12,0.21,1.54,0.63C27.658,24.438,27.869,24.998,27.869,25.628z M7.002,16.665
	c0,0.841-0.28,1.61-0.91,2.241c-0.63,0.63-1.33,0.91-2.241,0.91c-0.91,0-1.68-0.28-2.311-0.91c-0.63-0.631-0.91-1.4-0.91-2.241
	c0-0.91,0.28-1.68,0.91-2.311c0.631-0.63,1.4-0.91,2.311-0.91c0.911,0,1.611,0.28,2.241,0.91S7.002,15.755,7.002,16.665z
	 M19.186,29.409c0,0.771-0.279,1.33-0.77,1.82S17.365,32,16.665,32c-0.771,0-1.33-0.28-1.82-0.771s-0.771-1.05-0.771-1.82
	c0-0.7,0.28-1.261,0.771-1.751s1.05-0.77,1.82-0.77c0.7,0,1.261,0.279,1.751,0.77S19.186,28.709,19.186,29.409z M10.573,25.628
	c0,0.771-0.28,1.471-0.841,2.03c-0.63,0.561-1.26,0.841-2.03,0.841c-0.84,0-1.54-0.28-2.101-0.841c-0.561-0.56-0.84-1.26-0.84-2.03
	c0-0.84,0.279-1.54,0.84-2.101s1.261-0.84,2.101-0.84c0.771,0,1.4,0.279,2.03,0.84C10.293,24.088,10.573,24.788,10.573,25.628z"/>
</svg>
