<?xml version="1.0" encoding="utf-8"?>
<!-- Generator: Adobe Illustrator 16.0.0, SVG Export Plug-In . SVG Version: 6.00 Build 0)  -->
<!DOCTYPE svg PUBLIC "-//W3C//DTD SVG 1.1//EN" "http://www.w3.org/Graphics/SVG/1.1/DTD/svg11.dtd">
<svg version="1.1" id="Layer_1" xmlns="http://www.w3.org/2000/svg" xmlns:xlink="http://www.w3.org/1999/xlink" x="0px" y="0px"
	 width="32px" height="32px" viewBox="0 0 32 32" enable-background="new 0 0 32 32" xml:space="preserve">
<path d="M32,12.536c0,0.27-0.135,0.606-0.472,0.943l-7.006,6.736l1.684,9.701c0,0.067,0,0.202,0,0.404s-0.067,0.472-0.202,0.674
	c-0.135,0.135-0.337,0.202-0.606,0.27c-0.202-0.067-0.471-0.135-0.74-0.202l-8.624-4.648l-8.69,4.648
	c-0.27,0.067-0.539,0.135-0.741,0.202c-0.27-0.067-0.472-0.135-0.606-0.27c-0.135-0.202-0.202-0.472-0.202-0.674
	c0-0.135,0-0.27,0.067-0.404l1.617-9.701l-7.006-6.736C0.135,13.075,0,12.738,0,12.536c0-0.471,0.337-0.808,1.078-0.875l9.633-1.482
	l4.379-8.69c0.202-0.539,0.539-0.809,0.942-0.741c0.337-0.067,0.674,0.202,0.943,0.741l4.312,8.69l9.634,1.482
	C31.663,11.728,32,12.064,32,12.536z"/>
</svg>
