<?xml version="1.0" encoding="utf-8"?>
<!-- Generator: Adobe Illustrator 16.0.0, SVG Export Plug-In . SVG Version: 6.00 Build 0)  -->
<!DOCTYPE svg PUBLIC "-//W3C//DTD SVG 1.1//EN" "http://www.w3.org/Graphics/SVG/1.1/DTD/svg11.dtd">
<svg version="1.1" id="Layer_1" xmlns="http://www.w3.org/2000/svg" xmlns:xlink="http://www.w3.org/1999/xlink" x="0px" y="0px"
	 width="32px" height="32px" viewBox="0 0 32 32" enable-background="new 0 0 32 32" xml:space="preserve">
<path d="M18,14v7.312c0,0.438,0,0.875,0,1.25s0,0.688,0,0.938c0,0.312,0,0.562,0.062,0.75s0.062,0.375,0.125,0.5
	s0.125,0.25,0.188,0.375c0.062,0.188,0.188,0.312,0.312,0.438c0.062,0.125,0.188,0.25,0.312,0.312
	c0.125,0.125,0.25,0.188,0.375,0.25c0.188,0.125,0.438,0.25,0.625,0.312s0.375,0.125,0.562,0.188s0.375,0.062,0.625,0.125
	c0.188,0.062,0.438,0.062,0.625,0.062c0.438,0,0.812,0,1.125-0.062s0.688-0.125,1-0.188s0.625-0.188,0.938-0.375
	S25.562,25.812,26,25.5v4.812c-0.312,0.188-0.688,0.312-1,0.438s-0.625,0.25-0.938,0.312c-0.312,0.125-0.562,0.25-0.875,0.312
	s-0.562,0.188-0.875,0.25c-0.25,0.062-0.5,0.062-0.812,0.125s-0.562,0.125-0.875,0.125c-0.312,0.062-0.625,0.062-0.938,0.062
	C19.375,32,19.062,32,18.75,32c-0.375,0-0.688,0-1-0.062c-0.312,0-0.562,0-0.812-0.062c-0.312-0.062-0.562-0.125-0.812-0.188
	c-0.312-0.062-0.562-0.188-0.812-0.25C15,31.375,14.75,31.25,14.5,31.125c-0.312-0.062-0.562-0.188-0.75-0.375
	c-0.25-0.125-0.5-0.25-0.688-0.438c-0.25-0.125-0.438-0.25-0.625-0.438s-0.375-0.375-0.562-0.562s-0.312-0.312-0.438-0.5
	c-0.188-0.188-0.312-0.375-0.375-0.562c-0.125-0.188-0.25-0.375-0.312-0.562S10.625,27.25,10.562,27
	c-0.062-0.188-0.062-0.438-0.125-0.75c-0.062-0.25-0.062-0.562-0.062-0.875c-0.062-0.312-0.062-0.688-0.062-1.062V13.125H6V8.562
	C6.312,8.5,6.688,8.375,7,8.25S7.625,8,7.938,7.812C8.25,7.688,8.5,7.562,8.812,7.375S9.375,7,9.562,6.812S10,6.438,10.188,6.25
	s0.438-0.438,0.625-0.688c0.188-0.188,0.312-0.438,0.5-0.688c0.125-0.25,0.25-0.5,0.438-0.812C11.875,3.812,12,3.5,12.125,3.188
	c0.062-0.312,0.188-0.625,0.312-0.938c0.062-0.312,0.188-0.688,0.25-1.062S12.75,0.438,12.812,0H18v8h8v6H18z"/>
</svg>
