<?xml version="1.0" encoding="utf-8"?>
<!-- Generator: Adobe Illustrator 16.0.0, SVG Export Plug-In . SVG Version: 6.00 Build 0)  -->
<!DOCTYPE svg PUBLIC "-//W3C//DTD SVG 1.1//EN" "http://www.w3.org/Graphics/SVG/1.1/DTD/svg11.dtd">
<svg version="1.1" id="Layer_1" xmlns="http://www.w3.org/2000/svg" xmlns:xlink="http://www.w3.org/1999/xlink" x="0px" y="0px"
	 width="32px" height="32px" viewBox="0 0 32 32" enable-background="new 0 0 32 32" xml:space="preserve">
<path d="M32,6.062c-0.312,0.125-0.562,0.25-0.875,0.375S30.5,6.688,30.188,6.75s-0.625,0.125-0.938,0.188s-0.688,0.125-1,0.188
	c0.312-0.188,0.625-0.438,0.938-0.75C29.5,6.125,29.75,5.875,30,5.562s0.5-0.625,0.688-1C30.875,4.25,31,3.875,31.125,3.5
	c-0.312,0.188-0.688,0.312-1,0.5s-0.688,0.312-1,0.438s-0.688,0.25-1.062,0.312c-0.375,0.125-0.75,0.25-1.125,0.312
	C26.625,4.75,26.312,4.438,26,4.188c-0.375-0.25-0.75-0.438-1.188-0.625S24,3.25,23.562,3.125C23.125,3.062,22.625,3,22.125,3
	c-0.875,0-1.688,0.188-2.5,0.5S18.062,4.312,17.5,4.875C16.938,5.5,16.438,6.188,16.125,7c-0.375,0.812-0.562,1.625-0.562,2.562
	c0,0.125,0,0.25,0.062,0.375c0,0.125,0,0.25,0,0.375s0,0.25,0.062,0.375c0,0.125,0,0.25,0.062,0.375
	c-1.375-0.062-2.688-0.312-3.938-0.688C10.5,10.062,9.312,9.562,8.188,9C7,8.438,5.938,7.688,4.938,6.875S3.062,5.188,2.25,4.188
	c-0.188,0.25-0.312,0.5-0.375,0.75C1.75,5.25,1.625,5.5,1.562,5.75C1.5,6.062,1.438,6.312,1.375,6.625S1.312,7.188,1.312,7.5
	c0,0.562,0.062,1.125,0.25,1.625c0.125,0.562,0.312,1.062,0.562,1.5c0.25,0.5,0.562,0.938,0.938,1.312s0.75,0.688,1.188,1
	c-0.25,0-0.5,0-0.75-0.062c-0.312-0.062-0.562-0.125-0.812-0.188s-0.5-0.125-0.688-0.25c-0.25-0.062-0.5-0.188-0.688-0.312l0,0
	c0,0.062,0,0.062,0,0.062l0,0c0,0,0,0,0,0.062c0,0.812,0.125,1.562,0.375,2.25s0.625,1.312,1.125,1.875
	c0.438,0.562,1,1.062,1.688,1.438c0.625,0.438,1.312,0.688,2.062,0.875c-0.125,0.062-0.25,0.062-0.375,0.062
	C6,18.812,5.875,18.812,5.75,18.812c-0.188,0.062-0.312,0.062-0.438,0.062c-0.188,0-0.312,0-0.5,0c-0.062,0-0.188,0-0.25,0
	c-0.125,0-0.25,0-0.312,0c-0.125,0-0.25,0-0.312-0.062c-0.125,0-0.25,0-0.375-0.062C3.75,19.438,4.062,20,4.5,20.562
	C4.875,21.125,5.312,21.625,5.875,22C6.438,22.438,7,22.75,7.688,22.938C8.312,23.188,9,23.312,9.75,23.312
	C9.188,23.75,8.562,24.188,7.938,24.5C7.312,24.875,6.688,25.188,6,25.375c-0.688,0.25-1.438,0.438-2.125,0.562
	c-0.75,0.125-1.5,0.188-2.312,0.188c-0.125,0-0.25,0-0.375,0s-0.25,0-0.375,0c-0.188,0-0.312,0-0.438-0.062c-0.125,0-0.25,0-0.375,0
	c0.688,0.438,1.438,0.875,2.25,1.25S3.875,28,4.75,28.25c0.812,0.25,1.688,0.438,2.625,0.562C8.25,28.938,9.125,29,10.062,29
	c3,0,5.688-0.562,8-1.688s4.312-2.562,5.875-4.375s2.812-3.812,3.625-6.062c0.812-2.188,1.188-4.375,1.188-6.562
	c0-0.062,0-0.188,0-0.25s0-0.125,0-0.188s0-0.125,0-0.188s0-0.125,0-0.188c0.312-0.25,0.625-0.5,0.938-0.75s0.562-0.5,0.875-0.812
	c0.25-0.312,0.5-0.625,0.75-0.938S31.812,6.375,32,6.062z"/>
</svg>
