<?xml version="1.0" encoding="utf-8"?>
<!-- Generator: Adobe Illustrator 16.0.0, SVG Export Plug-In . SVG Version: 6.00 Build 0)  -->
<!DOCTYPE svg PUBLIC "-//W3C//DTD SVG 1.1//EN" "http://www.w3.org/Graphics/SVG/1.1/DTD/svg11.dtd">
<svg version="1.1" id="Layer_1" xmlns="http://www.w3.org/2000/svg" xmlns:xlink="http://www.w3.org/1999/xlink" x="0px" y="0px"
	 width="32px" height="32px" viewBox="0 0 32 32" enable-background="new 0 0 32 32" xml:space="preserve">
<path d="M17.047,16.006c0,0.038-0.014,0.062-0.039,0.075l-1.676,1.69c-0.025,0.012-0.051,0.025-0.088,0.025
	c-0.025,0-0.05-0.014-0.076-0.025l-0.176-0.189c-0.025-0.025-0.038-0.051-0.038-0.076c0-0.037,0.013-0.062,0.038-0.088l1.412-1.412
	l-1.412-1.412c-0.025-0.025-0.038-0.05-0.038-0.088c0-0.038,0.013-0.063,0.038-0.088l0.176-0.177
	c0.025-0.025,0.05-0.038,0.076-0.038c0.038,0,0.063,0.013,0.088,0.038l1.676,1.677C17.033,15.943,17.047,15.968,17.047,16.006z"/>
<path d="M32,22.681c0,0.337-0.112,0.562-0.337,0.674l-1.572,1.685c-0.225,0.224-0.448,0.336-0.785,0.336
	c-0.225,0-0.449-0.112-0.674-0.336L16.056,12.352L3.369,25.039c-0.225,0.224-0.449,0.336-0.674,0.336
	c-0.337,0-0.562-0.112-0.786-0.336l-1.572-1.685C0.112,23.242,0,23.018,0,22.681s0.112-0.562,0.337-0.786L15.27,6.962
	c0.225-0.225,0.449-0.337,0.786-0.337c0.225,0,0.449,0.112,0.674,0.337l14.934,14.933C31.888,22.119,32,22.344,32,22.681z"/>
</svg>
