<?xml version="1.0" encoding="utf-8"?>
<!-- Generator: Adobe Illustrator 16.0.0, SVG Export Plug-In . SVG Version: 6.00 Build 0)  -->
<!DOCTYPE svg PUBLIC "-//W3C//DTD SVG 1.1//EN" "http://www.w3.org/Graphics/SVG/1.1/DTD/svg11.dtd">
<svg version="1.1" id="Layer_1" xmlns="http://www.w3.org/2000/svg" xmlns:xlink="http://www.w3.org/1999/xlink" x="0px" y="0px"
	 width="32px" height="32px" viewBox="0 0 32 32" enable-background="new 0 0 32 32" xml:space="preserve">
<path d="M31.887,7.993l0.059,0.175c0.291,0.701-0.584,2.334-2.51,4.902c-0.233,0.35-0.583,0.817-1.108,1.4
	c-0.817,1.109-1.284,1.868-1.459,2.218c-0.175,0.467-0.059,0.934,0.233,1.343c0.175,0.233,0.642,0.7,1.342,1.342h0.059v0.117
	c1.575,1.458,2.685,2.684,3.21,3.676c0.058,0.059,0.116,0.117,0.116,0.176c0.059,0.058,0.117,0.233,0.117,0.467
	c0.058,0.175,0.058,0.408-0.059,0.583c0,0.175-0.117,0.292-0.408,0.408c-0.176,0.176-0.525,0.233-0.992,0.233l-4.202,0.059
	c-0.292,0.059-0.642,0.059-0.934-0.059c-0.408-0.116-0.7-0.233-0.875-0.408l-0.351-0.175c-0.292-0.233-0.7-0.584-1.167-1.051
	c-0.408-0.525-0.816-0.934-1.167-1.283c-0.292-0.409-0.584-0.7-0.992-0.992c-0.35-0.292-0.642-0.351-0.934-0.233
	c0,0-0.059,0-0.175,0.058c0,0-0.117,0.059-0.292,0.234c-0.059,0.116-0.175,0.291-0.351,0.467c-0.058,0.175-0.116,0.467-0.291,0.875
	c-0.059,0.408-0.059,0.817-0.059,1.284c0.059,0.175,0,0.291-0.059,0.467c0,0.175-0.059,0.233-0.175,0.291v0.117
	c-0.233,0.175-0.525,0.292-0.875,0.35h-1.984c-0.759,0.059-1.518-0.058-2.393-0.291c-0.817-0.233-1.575-0.525-2.217-0.876
	c-0.583-0.35-1.167-0.7-1.692-1.108c-0.525-0.351-0.934-0.642-1.226-0.934l-0.35-0.408c-0.175-0.117-0.292-0.292-0.467-0.525
	c-0.233-0.176-0.642-0.7-1.167-1.518c-0.642-0.759-1.226-1.634-1.751-2.509c-0.642-0.876-1.284-2.043-2.042-3.502
	c-0.817-1.459-1.575-2.976-2.217-4.552C0.024,8.635-0.034,8.519,0.024,8.402c-0.058-0.175,0-0.234,0.059-0.292V7.993
	c0.175-0.175,0.525-0.292,0.934-0.292l4.61-0.058C5.743,7.701,5.86,7.701,6.035,7.76C6.093,7.818,6.21,7.876,6.268,7.935h0.059
	c0.175,0.175,0.35,0.351,0.408,0.584c0.234,0.525,0.467,1.108,0.759,1.692c0.292,0.584,0.525,1.051,0.7,1.342l0.292,0.525
	c0.292,0.642,0.583,1.226,0.934,1.692c0.292,0.525,0.525,0.875,0.817,1.167c0.175,0.292,0.409,0.467,0.7,0.642
	c0.175,0.175,0.409,0.233,0.584,0.233c0.117,0,0.233,0,0.408-0.059c0-0.058,0.059-0.058,0.117-0.117c0-0.058,0.059-0.175,0.175-0.35
	c0.058-0.175,0.175-0.467,0.233-0.817c0-0.292,0.058-0.759,0.175-1.342c0-0.583,0-1.284,0-2.042
	c-0.058-0.467-0.117-0.875-0.175-1.226c-0.117-0.408-0.175-0.642-0.233-0.758l-0.175-0.233c-0.233-0.409-0.7-0.642-1.4-0.701
	c-0.117-0.058-0.059-0.175,0.117-0.408c0.175-0.175,0.408-0.35,0.583-0.525c0.642-0.292,1.984-0.408,4.026-0.35
	c0.934,0,1.693,0.059,2.218,0.175c0.291,0.058,0.467,0.175,0.583,0.233c0.175,0.117,0.292,0.233,0.351,0.408
	c0.116,0.175,0.175,0.35,0.175,0.525c0.059,0.175,0.116,0.467,0.059,0.759c0.058,0.292,0,0.642-0.059,0.934
	c0.059,0.292,0.059,0.642,0,1.167c0,0.525,0,0.992-0.059,1.4c0.059,0.117,0.059,0.351,0,0.701c0.059,0.292,0.059,0.583,0,0.758
	c0.059,0.175,0.059,0.409,0.059,0.7c0.059,0.292,0.116,0.467,0.175,0.642c0.175,0.175,0.292,0.292,0.408,0.409
	c0.117,0.058,0.176,0.058,0.233,0.058c0.176,0.059,0.292,0,0.468-0.175c0.233-0.175,0.467-0.35,0.642-0.583
	c0.292-0.233,0.583-0.584,0.875-1.109c0.351-0.525,0.7-1.109,1.109-1.809c0.7-1.109,1.283-2.393,1.809-3.735
	c0.059-0.117,0.117-0.233,0.117-0.292c0.116-0.058,0.175-0.117,0.233-0.175l0.116-0.059V7.76h0.059h0.175
	c0.175-0.059,0.292-0.059,0.351-0.059h4.843c0.409-0.058,0.759-0.058,1.051,0.059C31.595,7.818,31.77,7.935,31.887,7.993z"/>
</svg>
