<?xml version="1.0" encoding="utf-8"?>
<!-- Generator: Adobe Illustrator 16.0.0, SVG Export Plug-In . SVG Version: 6.00 Build 0)  -->
<!DOCTYPE svg PUBLIC "-//W3C//DTD SVG 1.1//EN" "http://www.w3.org/Graphics/SVG/1.1/DTD/svg11.dtd">
<svg version="1.1" id="Layer_1" xmlns="http://www.w3.org/2000/svg" xmlns:xlink="http://www.w3.org/1999/xlink" x="0px" y="0px"
	 width="32px" height="32px" viewBox="0 0 32 32" enable-background="new 0 0 32 32" xml:space="preserve">
<path d="M12.375,18.812c-0.188,0.062-0.312,0.062-0.438,0.062s-0.25,0-0.375,0c-0.188,0.062-0.312,0.062-0.438,0.062
	C11,19,10.875,19,10.75,19.062s-0.25,0.125-0.375,0.188s-0.25,0.188-0.312,0.25c-0.125,0.125-0.188,0.25-0.25,0.375
	c-0.062,0.188-0.062,0.312-0.062,0.5c0,0.062,0,0.062,0,0.125s0,0.125,0.062,0.188c0,0.062,0,0.125,0.062,0.188
	c0,0.062,0,0.125,0.062,0.188c0.312,0.438,0.75,0.875,1.188,1.188c0.438,0.375,0.938,0.688,1.438,0.938s1.062,0.438,1.625,0.562
	C14.75,23.938,15.375,24,16,24c0.562,0,1.188-0.062,1.75-0.188s1.062-0.312,1.562-0.562s1-0.562,1.438-0.938
	c0.438-0.312,0.812-0.688,1.188-1.125C22,21.125,22,21.062,22.062,21c0-0.062,0-0.125,0.062-0.188s0.062-0.188,0.062-0.25
	s0-0.125,0-0.188c0-0.188,0-0.312-0.062-0.5C22.062,19.75,22,19.625,21.938,19.5c-0.125-0.125-0.25-0.25-0.375-0.312
	c-0.188-0.062-0.312-0.125-0.438-0.125C21,19,20.875,19,20.75,18.938c-0.188,0-0.312,0-0.438-0.062c-0.125,0-0.25,0-0.375-0.062
	c-0.188,0-0.312,0-0.5,0c-0.188-0.062-0.312-0.125-0.5-0.188s-0.312-0.188-0.438-0.312s-0.188-0.25-0.25-0.438
	s-0.125-0.375-0.125-0.562s0.062-0.312,0.125-0.5s0.125-0.312,0.25-0.438s0.25-0.25,0.438-0.312C19.062,16,19.25,16,19.438,15.938
	c0,0,0,0,0.062,0c0,0,0,0,0.062,0s0.062,0,0.125,0l0,0c0.875-0.062,1.688-0.188,2.438-0.312s1.438-0.312,2.125-0.5
	c0.625-0.188,1.188-0.375,1.688-0.688c0.5-0.25,0.938-0.562,1.375-0.875c0.062-0.062,0.062-0.125,0.125-0.188
	s0.062-0.188,0.125-0.25s0.062-0.125,0.062-0.188s0-0.188,0-0.25c0-0.188,0-0.312-0.062-0.5s-0.188-0.312-0.25-0.438
	c-0.125-0.125-0.25-0.25-0.375-0.312c-0.188-0.062-0.312-0.062-0.5-0.125c-0.5-0.062-0.938-0.25-1.375-0.5S24.312,10.25,24,9.875
	c-0.312-0.312-0.562-0.75-0.75-1.188S23,7.812,23,7.312v-0.25c0-1-0.188-1.938-0.562-2.812c-0.375-0.812-0.875-1.562-1.5-2.188
	s-1.375-1.125-2.188-1.5C17.875,0.188,16.938,0,16,0c-1,0-1.938,0.188-2.75,0.562s-1.562,0.875-2.188,1.5
	c-0.688,0.625-1.188,1.375-1.5,2.188C9.188,5.125,9,6.062,9,7.062v0.25c0,0.5-0.062,0.938-0.25,1.375S8.312,9.562,8,9.875
	c-0.312,0.375-0.688,0.688-1.125,0.938S6,11.25,5.5,11.312c-0.188,0.062-0.312,0.062-0.438,0.125
	C4.875,11.5,4.75,11.625,4.688,11.75C4.562,11.875,4.5,12,4.438,12.188s-0.125,0.312-0.125,0.5c0,0.062,0,0.188,0.062,0.25
	c0,0.062,0,0.125,0.062,0.188c0,0.062,0,0.188,0.062,0.25s0.125,0.125,0.188,0.188c0.375,0.312,0.812,0.625,1.375,0.875
	c0.5,0.312,1.062,0.5,1.688,0.688s1.312,0.375,2.062,0.5s1.562,0.25,2.5,0.312c0.062,0,0.062,0,0.125,0c0,0,0,0,0.062,0
	c0,0,0,0,0.062,0c0,0,0,0,0.062,0c0.188,0.062,0.312,0.125,0.5,0.188c0.125,0.062,0.25,0.188,0.375,0.25
	c0.062,0.125,0.188,0.25,0.25,0.438s0.062,0.312,0.062,0.5s0,0.375-0.062,0.562s-0.188,0.375-0.312,0.5
	c-0.188,0.125-0.312,0.25-0.5,0.312S12.562,18.812,12.375,18.812z M28.125,23.062c-0.188-0.25-0.438-0.5-0.625-0.75
	c-0.188-0.188-0.438-0.438-0.625-0.625c-0.25-0.188-0.5-0.438-0.688-0.625c-0.25-0.188-0.5-0.312-0.812-0.5
	c-0.375,0.938-0.875,1.75-1.5,2.5c-0.688,0.75-1.375,1.375-2.188,1.875c-0.812,0.562-1.75,0.938-2.688,1.25s-1.938,0.5-3,0.5
	s-2.062-0.188-3-0.5c-1-0.312-1.875-0.688-2.688-1.25c-0.812-0.5-1.562-1.125-2.188-1.875S7,21.5,6.562,20.562
	c-0.25,0.188-0.5,0.312-0.75,0.5s-0.5,0.438-0.688,0.625c-0.25,0.188-0.5,0.438-0.688,0.625c-0.188,0.25-0.375,0.5-0.562,0.75
	C3.688,23.25,3.562,23.438,3.5,23.688C3.375,24,3.312,24.25,3.25,24.5c-0.062,0.312-0.125,0.562-0.188,0.812S3,25.812,3,26
	c0,0.062,0,0.25,0,0.562c0,0.375,0,0.75,0,1.188s0,0.75,0,1.062s0,0.5,0,0.5c0,0.375,0.062,0.75,0.188,1.062S3.5,31,3.75,31.188
	c0.25,0.25,0.562,0.438,0.875,0.562c0.312,0.188,0.625,0.25,1,0.25h20.688c0.375,0,0.75-0.062,1.062-0.25
	c0.312-0.125,0.562-0.312,0.812-0.562c0.25-0.188,0.438-0.5,0.625-0.812C28.938,30.062,29,29.688,29,29.312c0,0,0-0.188,0-0.5
	s0-0.625,0-1.062s0-0.812,0-1.188c0-0.312,0-0.5,0-0.562c0-0.188,0-0.438-0.062-0.688s-0.125-0.5-0.188-0.812
	c-0.062-0.25-0.188-0.5-0.25-0.812C28.375,23.438,28.25,23.25,28.125,23.062z"/>
</svg>
