<?xml version="1.0" encoding="utf-8"?>
<!-- Generator: Adobe Illustrator 16.0.0, SVG Export Plug-In . SVG Version: 6.00 Build 0)  -->
<!DOCTYPE svg PUBLIC "-//W3C//DTD SVG 1.1//EN" "http://www.w3.org/Graphics/SVG/1.1/DTD/svg11.dtd">
<svg version="1.1" id="Layer_1" xmlns="http://www.w3.org/2000/svg" xmlns:xlink="http://www.w3.org/1999/xlink" x="0px" y="0px"
	 width="32px" height="32px" viewBox="0 0 32 32" enable-background="new 0 0 32 32" xml:space="preserve">
<path d="M27.446,23.236l0.125,2.12l0.873,0.062l1.123,0.125l0.249-2.059l-1.061-0.062L27.446,23.236z M27.883,21.863l1.81,0.188
	L32,13.442c-0.125,0-0.374,0-0.749-0.062c-0.437-0.062-0.873-0.062-1.31-0.125c-0.499-0.062-0.936-0.062-1.31-0.124
	c-0.437-0.062-0.687-0.062-0.874-0.125L27.883,21.863z M25.7,11.135h0.062c0.062,0,0.125,0,0.188-0.062c0.062,0,0.062,0,0.125,0
	s0.125,0,0.249-0.062c0.062,0,0.125,0,0.125,0h2.37l0.312-0.562c0.062,0,0.062,0,0.062,0c-0.062,0-0.062,0,0,0l0,0
	c-0.062,0-0.062,0,0,0l0.873-1.31c0.062,0,0.062,0,0,0s-0.062,0,0,0l0,0c-0.062,0-0.062,0,0,0l0.062-0.125H17.652l0.438,1.996h3.493
	l-5.801,5.178c-0.25-0.438-0.624-0.937-1.123-1.56c-0.499-0.562-0.998-1.248-1.497-1.934c-0.499-0.687-1.06-1.373-1.622-2.121
	c-0.562-0.749-1.123-1.497-1.56-2.184h4.242l0.062-1.497V6.581c0.062,0,0.062,0,0.062,0c-0.062,0-0.062,0,0,0c0,0,0,0-0.062,0
	s-0.062,0,0,0l-0.062-0.125H0.062L0,8.39h4.304c0.374,0.312,0.998,0.998,1.934,1.996c0.874,0.998,1.747,2.059,2.62,3.119
	c0.873,1.123,1.684,2.121,2.433,3.057c0.686,0.936,1.061,1.56,1.123,1.746c0.062,0.188,0.062,0.499,0.062,1.061s0,1.123,0.062,1.747
	c0,0.624,0,1.185-0.062,1.684s-0.062,0.812-0.125,0.874c-0.188,0.187-0.499,0.249-0.811,0.312c-0.375,0.062-0.811,0.125-1.248,0.125
	c-0.437,0.062-0.874,0.062-1.248,0.062c-0.375,0-0.686,0-0.874,0l-0.187,1.372c0.312,0,0.749,0,1.373-0.062c0.624,0,1.248,0,1.871,0
	c0.624,0,1.248,0,1.872-0.062c0.624,0,1.06,0,1.372,0c0.686,0,1.373,0,2.183,0c0.749,0,1.498,0,2.246,0s1.373,0,1.934,0
	c0.562,0,0.936,0,1.123,0v-1.372c-0.125-0.062-0.437-0.062-0.873-0.062s-0.936,0-1.373,0c-0.498,0-0.998,0-1.434,0
	c-0.438,0-0.687,0-0.749-0.062c-0.062-0.187-0.125-0.562-0.125-1.123c0-0.561,0-1.122-0.062-1.809c-0.062-0.624-0.062-1.186,0-1.746
	c0-0.562,0-0.874,0-0.998c0.187-0.312,0.623-0.874,1.434-1.685c0.812-0.749,1.685-1.497,2.683-2.309
	c0.998-0.811,1.934-1.497,2.745-2.12c0.811-0.624,1.372-0.936,1.621-0.998H25.7z"/>
</svg>
